<svg width="41" height="40" viewBox="0 0 41 40" fill="none" xmlns="http://www.w3.org/2000/svg">
<g clip-path="url(#clip0_3_1174)">
<path d="M37.7662 3.69478L36.1121 4.05033C36.1121 3.71796 35.9652 3.46289 35.8029 3.46289C35.6406 3.46289 35.5169 3.71796 35.5014 4.05033L33.8473 3.69478C33.7366 3.69478 33.6304 3.73875 33.5522 3.81702C33.4739 3.8953 33.4299 4.00146 33.4299 4.11216C33.4299 4.22286 33.4739 4.32903 33.5522 4.4073C33.6304 4.48558 33.7366 4.52955 33.8473 4.52955H35.2773C35.0557 4.71932 34.8806 4.95734 34.7654 5.22531C34.6502 5.49329 34.5979 5.78411 34.6125 6.07544C34.6125 7.0339 35.1459 7.80685 35.8029 7.80685C36.4599 7.80685 36.9932 7.0339 36.9932 6.07544C37.0077 5.78487 36.9561 5.4948 36.8423 5.22705C36.7285 4.95929 36.5554 4.72081 36.3362 4.52955H37.7662C37.8769 4.52955 37.983 4.48558 38.0613 4.4073C38.1396 4.32903 38.1836 4.22286 38.1836 4.11216C38.1816 4.00208 38.1369 3.89707 38.0591 3.81922C37.9812 3.74137 37.8762 3.69676 37.7662 3.69478Z" fill="#BD0026"/>
<path d="M37.5033 6.07544H34.1101V6.63969H37.5033V6.07544Z" fill="#C5C8CF"/>
<path d="M39.0879 6.63184H0V8.98159H39.0879V6.63184Z" fill="#A9ADB3"/>
<path d="M40.4251 6.63184H39.0879V8.98159H40.4251V6.63184Z" fill="#C5C8CF"/>
<path d="M37.7662 31.5516L36.1121 31.8995C36.1121 31.5748 35.9652 31.312 35.8029 31.312C35.6406 31.312 35.5169 31.5748 35.5014 31.8995L33.8473 31.5516C33.7925 31.5516 33.7382 31.5624 33.6876 31.5834C33.6369 31.6044 33.5909 31.6351 33.5522 31.6739C33.5134 31.7126 33.4827 31.7586 33.4617 31.8093C33.4407 31.8599 33.4299 31.9142 33.4299 31.969C33.4299 32.0797 33.4739 32.1859 33.5522 32.2642C33.6304 32.3424 33.7366 32.3864 33.8473 32.3864H35.2773C35.0543 32.575 34.8783 32.8128 34.7629 33.0811C34.6476 33.3494 34.5961 33.6407 34.6125 33.9323C34.6125 34.8907 35.1459 35.6637 35.8029 35.6637C36.4599 35.6637 36.9932 34.8907 36.9932 33.9323C37.0088 33.6416 36.9577 33.3512 36.8438 33.0832C36.73 32.8153 36.5563 32.5769 36.3362 32.3864H37.7662C37.8762 32.3844 37.9812 32.3398 38.0591 32.262C38.1369 32.1841 38.1816 32.0791 38.1836 31.969C38.1836 31.9142 38.1728 31.8599 38.1518 31.8093C38.1308 31.7586 38.1001 31.7126 38.0613 31.6739C38.0225 31.6351 37.9765 31.6044 37.9259 31.5834C37.8753 31.5624 37.821 31.5516 37.7662 31.5516Z" fill="#BD0026"/>
<path d="M37.5033 33.9324H34.1101V34.4966H37.5033V33.9324Z" fill="#C5C8CF"/>
<path d="M39.0879 34.4812H0V36.831H39.0879V34.4812Z" fill="#A9ADB3"/>
<path d="M40.4251 34.4812H39.0879V36.831H40.4251V34.4812Z" fill="#C5C8CF"/>
<path d="M5.54976 0H0V1.17488H5.54976V0Z" fill="#A9ADB3"/>
<path d="M5.54976 2.00195H0V2.82901H5.54976V2.00195Z" fill="#39435E"/>
<path d="M5.54976 3.46289H0V4.33632H5.54976V3.46289Z" fill="#A9ADB3"/>
<path d="M11.9575 0H6.40771V1.17488H11.9575V0Z" fill="#A9ADB3"/>
<path d="M11.9575 2.00195H6.40771V2.82901H11.9575V2.00195Z" fill="#39435E"/>
<path d="M11.9575 3.46289H6.40771V4.33632H11.9575V3.46289Z" fill="#A9ADB3"/>
<path d="M18.3652 0H12.8154V1.17488H18.3652V0Z" fill="#A9ADB3"/>
<path d="M18.3652 2.00195H12.8154V2.82901H18.3652V2.00195Z" fill="#39435E"/>
<path d="M18.3652 3.46289H12.8154V4.33632H18.3652V3.46289Z" fill="#A9ADB3"/>
<path d="M24.7729 0H19.2231V1.17488H24.7729V0Z" fill="#A9ADB3"/>
<path d="M24.7729 2.00195H19.2231V2.82901H24.7729V2.00195Z" fill="#39435E"/>
<path d="M24.7729 3.46289H19.2231V4.33632H24.7729V3.46289Z" fill="#A9ADB3"/>
<path d="M31.1806 0H25.6309V1.17488H31.1806V0Z" fill="#A9ADB3"/>
<path d="M31.1806 2.00195H25.6309V2.82901H31.1806V2.00195Z" fill="#39435E"/>
<path d="M31.1806 3.46289H25.6309V4.33632H31.1806V3.46289Z" fill="#A9ADB3"/>
<path d="M0 38.7245C0 39.0628 0.134358 39.3872 0.373535 39.6264C0.612712 39.8655 0.93711 39.9999 1.27536 39.9999H4.27439C4.61264 39.9999 4.93703 39.8655 5.17621 39.6264C5.41538 39.3872 5.54975 39.0628 5.54975 38.7245V31.2192L0 35.5477V38.7245Z" fill="#B1B4BA"/>
<path d="M4.27439 4.62988H1.27536C0.93711 4.62988 0.612712 4.76425 0.373535 5.00343C0.134358 5.24261 0 5.56701 0 5.90525V35.5478L5.54975 31.2193V5.90525C5.54975 5.56701 5.41538 5.24261 5.17621 5.00343C4.93703 4.76425 4.61264 4.62988 4.27439 4.62988Z" fill="#C5C8CF"/>
<path d="M10.6822 4.62988H7.67538C7.50826 4.62988 7.3428 4.66293 7.18849 4.72711C7.03419 4.7913 6.8941 4.88536 6.77628 5.00389C6.65847 5.12242 6.56527 5.26308 6.50202 5.41777C6.43877 5.57246 6.40672 5.73814 6.40774 5.90525V30.5545L11.9575 26.2337V5.90525C11.9575 5.56701 11.8231 5.24261 11.584 5.00343C11.3448 4.76425 11.0204 4.62988 10.6822 4.62988Z" fill="#C5C8CF"/>
<path d="M6.40774 38.7247C6.40672 38.8918 6.43877 39.0575 6.50202 39.2122C6.56527 39.3669 6.65847 39.5075 6.77628 39.6261C6.8941 39.7446 7.03419 39.8387 7.18849 39.9028C7.3428 39.967 7.50826 40.0001 7.67538 40.0001H10.6822C11.0204 40.0001 11.3448 39.8657 11.584 39.6265C11.8231 39.3873 11.9575 39.063 11.9575 38.7247V26.2339L6.40774 30.5547V38.7247Z" fill="#B1B4BA"/>
<path d="M17.0898 4.62988H14.0908C13.7525 4.62988 13.4282 4.76425 13.189 5.00343C12.9498 5.24261 12.8154 5.56701 12.8154 5.90525V25.569L18.3652 21.2483V5.90525C18.3652 5.73777 18.3322 5.57192 18.2681 5.41718C18.204 5.26245 18.1101 5.12186 17.9917 5.00343C17.8732 4.885 17.7326 4.79105 17.5779 4.72696C17.4232 4.66287 17.2573 4.62988 17.0898 4.62988Z" fill="#C5C8CF"/>
<path d="M12.8154 38.7246C12.8154 39.0629 12.9498 39.3872 13.189 39.6264C13.4282 39.8656 13.7525 40 14.0908 40H17.0898C17.4281 40 17.7525 39.8656 17.9917 39.6264C18.2308 39.3872 18.3652 39.0629 18.3652 38.7246V21.2483L12.8154 25.5691V38.7246Z" fill="#B1B4BA"/>
<path d="M23.4976 4.62988H20.4908C20.3237 4.62988 20.1582 4.66293 20.0039 4.72711C19.8496 4.7913 19.7095 4.88536 19.5917 5.00389C19.4739 5.12242 19.3807 5.26308 19.3174 5.41777C19.2542 5.57246 19.2221 5.73814 19.2232 5.90525V20.5912L24.7729 16.2705V5.91298C24.7739 5.74485 24.7417 5.57817 24.6781 5.42254C24.6144 5.26691 24.5207 5.1254 24.4021 5.00615C24.2836 4.88691 24.1427 4.79228 23.9874 4.7277C23.8322 4.66313 23.6657 4.62988 23.4976 4.62988Z" fill="#C5C8CF"/>
<path d="M19.2232 38.7245C19.2221 38.8916 19.2542 39.0573 19.3174 39.212C19.3807 39.3667 19.4739 39.5074 19.5917 39.6259C19.7095 39.7444 19.8496 39.8385 20.0039 39.9027C20.1582 39.9668 20.3237 39.9999 20.4908 39.9999H23.4976C23.8358 39.9999 24.1602 39.8655 24.3994 39.6263C24.6386 39.3872 24.7729 39.0628 24.7729 38.7245V16.2627L19.2232 20.5835V38.7245Z" fill="#B1B4BA"/>
<path d="M31.1808 5.90525C31.1808 5.56701 31.0464 5.24261 30.8072 5.00343C30.5681 4.76425 30.2437 4.62988 29.9054 4.62988H26.8986C26.5604 4.62988 26.236 4.76425 25.9968 5.00343C25.7577 5.24261 25.6233 5.56701 25.6233 5.90525V15.598L31.1808 11.2772V5.90525Z" fill="#C5C8CF"/>
<path d="M25.6465 15.5981V38.7247C25.6465 39.0629 25.7809 39.3873 26.02 39.6265C26.2592 39.8657 26.5836 40.0001 26.9218 40.0001H29.9286C30.2669 40.0001 30.5913 39.8657 30.8304 39.6265C31.0696 39.3873 31.204 39.0629 31.204 38.7247V11.2773L25.6465 15.5981Z" fill="#B1B4BA"/>
<path d="M3.01447 0H2.54297V4.62995H3.01447V0Z" fill="#C5C8CF"/>
<path d="M9.42218 0H8.95068V4.62995H9.42218V0Z" fill="#C5C8CF"/>
<path d="M15.8299 0H15.3584V4.62995H15.8299V0Z" fill="#C5C8CF"/>
<path d="M22.23 0H21.7585V4.62995H22.23V0Z" fill="#C5C8CF"/>
<path d="M28.6378 0H28.1663V4.62995H28.6378V0Z" fill="#C5C8CF"/>
<path d="M5.54976 0H0V0.378744H5.54976V0Z" fill="#C5C8CF"/>
<path d="M11.9575 0H6.40771V0.378744H11.9575V0Z" fill="#C5C8CF"/>
<path d="M18.3652 0H12.8154V0.378744H18.3652V0Z" fill="#C5C8CF"/>
<path d="M24.7729 0H19.2231V0.378744H24.7729V0Z" fill="#C5C8CF"/>
<path d="M31.1806 0H25.6309V0.378744H31.1806V0Z" fill="#C5C8CF"/>
</g>
<defs>
<clipPath id="clip0_3_1174">
<rect width="40.4328" height="40" fill="white"/>
</clipPath>
</defs>
</svg>
