<svg width="116" height="121" viewBox="0 0 116 121" fill="none" xmlns="http://www.w3.org/2000/svg">
<path opacity="0.1" d="M91.081 97.5543C81.739 106.943 70.165 113.752 57.4686 117.327C43.859 121.395 27.6921 122.88 17.9709 115.558C8.24978 108.236 5.09698 92.054 3.60815 77.5695C2.11933 63.0849 2.34703 50.2097 8.05711 41.3315C13.7672 32.4533 25.0297 27.5543 36.7827 19.4543C48.5356 11.3542 60.7615 0 72.8297 0C84.898 0 96.721 11.1243 103.342 23.9995C109.593 36.4284 111.506 50.6239 108.772 64.2875C106.206 76.8782 100.058 88.4396 91.081 97.5543Z" fill="#3B4652"/>
<path d="M79.8185 96.1747C79.7024 96.1747 79.591 96.1281 79.5089 96.0452C79.4267 95.9622 79.3806 95.8498 79.3806 95.7325V48.5825C79.3806 48.4653 79.4267 48.3528 79.5089 48.2699C79.591 48.187 79.7024 48.1404 79.8185 48.1404H100.137C101.754 48.1438 103.338 48.6067 104.707 49.4761C106.076 50.3456 107.175 51.5865 107.879 53.057L113.886 65.437C114.47 66.6301 114.77 67.9441 114.762 69.2748V91.4703C114.753 92.7181 114.257 93.912 113.381 94.7927C112.506 95.6735 111.321 96.17 110.085 96.1747H79.8185Z" fill="#FFD900"/>
<path d="M88.2259 74.5806C87.9147 74.5877 87.6053 74.5322 87.3156 74.4173C87.0259 74.3025 86.7617 74.1306 86.5384 73.9117C86.3151 73.6928 86.1371 73.4313 86.0149 73.1423C85.8926 72.8533 85.8285 72.5427 85.8262 72.2284V57.0364C85.8239 56.7269 85.8826 56.42 85.9988 56.1335C86.1151 55.8471 86.2866 55.5868 86.5034 55.3679C86.7201 55.149 86.9779 54.9759 87.2616 54.8585C87.5453 54.7411 87.8492 54.6819 88.1558 54.6842H100.084C100.483 54.6792 100.875 54.7899 101.213 55.0031C101.551 55.2162 101.822 55.523 101.993 55.8869L107.738 67.6655C108.047 68.2921 108.209 68.9819 108.211 69.6817V72.6175C108.211 73.1382 108.006 73.6375 107.642 74.0056C107.277 74.3738 106.783 74.5806 106.267 74.5806H88.2259Z" fill="white"/>
<path opacity="0.6" d="M4.08123 96.1571C3.11498 96.1571 2.18831 95.7695 1.50507 95.0796C0.821829 94.3897 0.437988 93.4541 0.437988 92.4784V84.1484C0.437988 84.0312 0.484123 83.9187 0.566243 83.8358C0.648363 83.7529 0.759742 83.7063 0.875878 83.7063H79.8186C79.9348 83.7063 80.0462 83.7529 80.1283 83.8358C80.2104 83.9187 80.2565 84.0312 80.2565 84.1484V95.7149C80.2565 95.8322 80.2104 95.9447 80.1283 96.0276C80.0462 96.1105 79.9348 96.1571 79.8186 96.1571H4.08123Z" fill="#39435E"/>
<path d="M95.3723 107.741C101.941 107.741 107.265 102.365 107.265 95.7327C107.265 89.1005 101.941 83.7241 95.3723 83.7241C88.804 83.7241 83.4792 89.1005 83.4792 95.7327C83.4792 102.365 88.804 107.741 95.3723 107.741Z" fill="white"/>
<path d="M95.3723 84.1663C97.6428 84.1628 99.8634 84.8396 101.753 86.1112C103.642 87.3827 105.115 89.1917 105.986 91.3092C106.856 93.4266 107.085 95.7573 106.643 98.006C106.201 100.255 105.108 102.32 103.502 103.942C101.897 105.563 99.8508 106.666 97.6237 107.113C95.3966 107.559 93.0883 107.328 90.9913 106.449C88.8942 105.57 87.1026 104.083 85.8433 102.175C84.5839 100.267 83.9136 98.0254 83.9171 95.7327C83.9171 92.6651 85.1239 89.7231 87.2722 87.554C89.4205 85.3849 92.3341 84.1663 95.3723 84.1663ZM95.3723 83.282C92.9473 83.282 90.5768 84.0081 88.5605 85.3684C86.5442 86.7287 84.9726 88.6622 84.0446 90.9244C83.1166 93.1865 82.8738 95.6757 83.3469 98.0772C83.82 100.479 84.9878 102.685 86.7025 104.416C88.4172 106.147 90.6019 107.326 92.9803 107.804C95.3587 108.282 97.8239 108.037 100.064 107.1C102.305 106.163 104.22 104.576 105.567 102.54C106.914 100.504 107.633 98.1105 107.633 95.662C107.61 92.3858 106.311 89.2503 104.017 86.9336C101.722 84.6169 98.617 83.3051 95.3723 83.282Z" fill="#3B4652"/>
<path opacity="0.6" d="M95.3723 100.932C94.3546 100.929 93.3607 100.621 92.5161 100.047C91.6716 99.4739 91.0143 98.6606 90.6272 97.7102C90.2401 96.7598 90.1407 95.7148 90.3413 94.7074C90.542 93.6999 91.0338 92.7751 91.7547 92.0497C92.4756 91.3243 93.3932 90.8308 94.3916 90.6316C95.3901 90.4324 96.4246 90.5364 97.3645 90.9304C98.3045 91.3245 99.1077 91.991 99.6728 92.8457C100.238 93.7004 100.539 94.7049 100.539 95.7326C100.539 96.4169 100.406 97.0945 100.146 97.7265C99.8859 98.3585 99.505 98.9325 99.025 99.4156C98.5449 99.8986 97.9752 100.281 97.3484 100.542C96.7216 100.802 96.05 100.935 95.3723 100.932Z" fill="#39435E"/>
<path d="M4.37889 92.4784V84.1484H0.875781V92.4784C0.873458 92.904 0.954781 93.326 1.11504 93.7197C1.2753 94.1134 1.51132 94.4711 1.80943 94.7721C2.10753 95.0731 2.46181 95.3114 2.85175 95.4733C3.24169 95.6351 3.65954 95.7172 4.08112 95.7148H7.58423C7.16265 95.7172 6.74479 95.6351 6.35485 95.4733C5.96492 95.3114 5.61064 95.0731 5.31253 94.7721C5.01442 94.4711 4.77841 94.1134 4.61815 93.7197C4.45789 93.326 4.37656 92.904 4.37889 92.4784Z" fill="#3B4652"/>
<path opacity="0.6" d="M0.875878 84.5907C0.759742 84.5907 0.648363 84.5441 0.566243 84.4612C0.484123 84.3783 0.437988 84.2658 0.437988 84.1486V24.0171C0.437981 22.552 1.01318 21.1467 2.03754 20.109C3.0619 19.0714 4.45187 18.4861 5.90285 18.4814H74.8092C76.2602 18.4861 77.6501 19.0714 78.6745 20.109C79.6989 21.1467 80.2741 22.552 80.274 24.0171V84.1486C80.274 84.2658 80.2279 84.3783 80.1458 84.4612C80.0637 84.5441 79.9523 84.5907 79.8362 84.5907H0.875878Z" fill="#39435E"/>
<path d="M47.9051 47.9105C47.6008 47.9099 47.3008 47.8373 47.0294 47.6983L39.1649 43.5775C39.0207 43.4951 38.8576 43.4524 38.6919 43.4537C38.5259 43.4488 38.3618 43.4918 38.219 43.5775L30.337 47.7513C30.0662 47.8922 29.7658 47.965 29.4612 47.9636C28.9729 47.9596 28.5039 47.7702 28.1475 47.433C27.9588 47.2537 27.8085 47.0372 27.7061 46.7968C27.6037 46.5565 27.5512 46.2975 27.552 46.0358V18.8706C27.552 18.7533 27.5981 18.6409 27.6803 18.558C27.7624 18.475 27.8738 18.4285 27.9899 18.4285H49.3764C49.4926 18.4285 49.604 18.475 49.6861 18.558C49.7682 18.6409 49.8143 18.7533 49.8143 18.8706V45.9828C49.8143 46.494 49.6132 46.9844 49.2551 47.3459C48.8971 47.7074 48.4115 47.9105 47.9051 47.9105Z" fill="#FFD900"/>
<path d="M24.3993 67.7891H6.53333C6.25925 67.7891 5.9964 67.899 5.80259 68.0948C5.60879 68.2905 5.49991 68.556 5.49991 68.8328C5.49754 68.9705 5.52265 69.1073 5.57374 69.2351C5.62484 69.3628 5.70087 69.4788 5.79731 69.5762C5.89375 69.6736 6.00862 69.7504 6.13507 69.802C6.26152 69.8536 6.39697 69.879 6.53333 69.8766H24.3993C24.6733 69.8766 24.9362 69.7666 25.13 69.5709C25.3238 69.3751 25.4327 69.1096 25.4327 68.8328C25.4327 68.556 25.3238 68.2905 25.13 68.0948C24.9362 67.899 24.6733 67.7891 24.3993 67.7891Z" fill="white"/>
<path d="M24.3991 74.2798H6.53322C6.28007 74.3131 6.04755 74.4382 5.87907 74.6319C5.71059 74.8256 5.61768 75.0746 5.61768 75.3324C5.61768 75.5902 5.71059 75.8392 5.87907 76.0329C6.04755 76.2266 6.28007 76.3517 6.53322 76.385H24.3991C24.5473 76.4044 24.6979 76.3917 24.8409 76.3477C24.9838 76.3037 25.1158 76.2294 25.2281 76.1298C25.3404 76.0302 25.4303 75.9075 25.492 75.77C25.5536 75.6325 25.5854 75.4833 25.5854 75.3324C25.5854 75.1815 25.5536 75.0323 25.492 74.8948C25.4303 74.7573 25.3404 74.6346 25.2281 74.535C25.1158 74.4354 24.9838 74.3611 24.8409 74.3171C24.6979 74.2731 24.5473 74.2604 24.3991 74.2798Z" fill="white"/>
<path d="M9.40582 18.8882H5.90271C4.56947 18.8882 3.29084 19.423 2.3481 20.3748C1.40536 21.3267 0.875732 22.6178 0.875732 23.964V84.0953H4.37885V23.964C4.37885 22.6178 4.90848 21.3267 5.85122 20.3748C6.79396 19.423 8.07259 18.8882 9.40582 18.8882Z" fill="#39435E"/>
<path d="M18.0061 107.741C24.5745 107.741 29.8992 102.365 29.8992 95.7327C29.8992 89.1005 24.5745 83.7241 18.0061 83.7241C11.4377 83.7241 6.11304 89.1005 6.11304 95.7327C6.11304 102.365 11.4377 107.741 18.0061 107.741Z" fill="white"/>
<path d="M18.006 84.1663C20.2759 84.1663 22.4947 84.8461 24.3818 86.1198C26.2688 87.3934 27.7393 89.2037 28.6071 91.3214C29.4749 93.4392 29.7011 95.7693 29.257 98.0169C28.8129 100.264 27.7185 102.329 26.1123 103.948C24.506 105.567 22.4601 106.669 20.2335 107.114C18.0069 107.559 15.6995 107.327 13.6035 106.448C11.5074 105.568 9.71684 104.081 8.45831 102.173C7.19978 100.266 6.52986 98.0246 6.53332 95.7327C6.53332 94.2123 6.8302 92.7068 7.40697 91.3023C7.98375 89.8979 8.8291 88.622 9.89467 87.5477C10.9602 86.4735 12.2251 85.6219 13.6169 85.0416C15.0088 84.4614 16.5003 84.1639 18.006 84.1663ZM18.006 83.282C15.5811 83.282 13.2105 84.0081 11.1942 85.3684C9.17794 86.7287 7.60643 88.6622 6.67843 90.9244C5.75043 93.1865 5.50762 95.6757 5.98071 98.0772C6.4538 100.479 7.62154 102.685 9.33626 104.416C11.051 106.147 13.2357 107.326 15.6141 107.804C17.9924 108.282 20.4577 108.037 22.6981 107.1C24.9385 106.163 26.8534 104.576 28.2006 102.54C29.5479 100.504 30.267 98.1105 30.267 95.662C30.244 92.3858 28.9449 89.2503 26.6505 86.9336C24.3561 84.6169 21.2508 83.3051 18.006 83.282Z" fill="#3B4652"/>
<path opacity="0.6" d="M18.006 100.932C16.9875 100.932 15.9919 100.627 15.1451 100.056C14.2982 99.4846 13.6382 98.6725 13.2484 97.7224C12.8587 96.7723 12.7567 95.7268 12.9554 94.7182C13.1541 93.7096 13.6445 92.7831 14.3647 92.0559C15.0849 91.3287 16.0025 90.8335 17.0014 90.6329C18.0003 90.4322 19.0357 90.5352 19.9767 90.9288C20.9176 91.3223 21.7219 91.9888 22.2877 92.8438C22.8536 93.6989 23.1556 94.7042 23.1556 95.7326C23.151 97.1102 22.6069 98.4301 21.6422 99.4042C20.6775 100.378 19.3703 100.928 18.006 100.932Z" fill="#39435E"/>
<path d="M89.82 72.2283V57.0363C89.82 56.5297 90.0193 56.0439 90.3741 55.6857C90.7288 55.3275 91.21 55.1262 91.7117 55.1262H88.2086C87.7069 55.1262 87.2257 55.3275 86.871 55.6857C86.5162 56.0439 86.3169 56.5297 86.3169 57.0363V72.2283C86.3215 72.7365 86.5247 73.2223 86.8822 73.58C87.2398 73.9377 87.7228 74.1383 88.2261 74.1383H91.7292C91.2259 74.1383 90.7429 73.9377 90.3853 73.58C90.0278 73.2223 89.8246 72.7365 89.82 72.2283Z" fill="#C9AB00"/>
</svg>
