<svg width="132" height="120" viewBox="0 0 132 120" fill="none" xmlns="http://www.w3.org/2000/svg">
<path opacity="0.1" d="M129.979 60.213C134.074 70.6301 125.13 85.6531 113.449 97.254C101.768 108.855 87.2632 117.098 72.9313 119.337C58.5993 121.575 44.3966 117.916 30.3017 111.868C16.2068 105.82 2.13341 97.8566 0.236842 86.1912C-1.65972 74.5258 8.21103 59.3736 16.3792 45.2976C24.5473 31.2216 30.9482 18.5446 41.7026 9.93547C52.457 1.3263 67.5648 -2.97829 76.6597 2.31635C85.7546 7.61099 88.6426 23.0214 98.6857 33.5461C108.729 44.0708 125.884 49.882 129.979 60.213Z" fill="#3B4652"/>
<path opacity="0.6" d="M24.2885 111.868C22.6824 111.868 21.142 111.231 20.0063 110.097C18.8705 108.962 18.2325 107.424 18.2325 105.82V42.3919C18.2288 41.4813 18.4326 40.5819 18.8284 39.7615C19.2242 38.9412 19.8016 38.2215 20.517 37.6569L49.3749 14.735C51.2146 13.2789 53.4931 12.4866 55.8405 12.4866C58.1878 12.4866 60.4663 13.2789 62.306 14.735L63.5991 15.7681C63.6683 15.8247 63.7222 15.8977 63.7561 15.9803C63.7899 16.063 63.8027 16.1528 63.7931 16.2416C63.7908 16.3266 63.7655 16.4095 63.72 16.4815C63.6745 16.5535 63.6104 16.6118 63.5345 16.6505C61.3338 17.886 59.2555 19.3273 57.3275 20.9551C56.9396 21.2779 56.5732 21.6223 56.2284 21.9667C56.1805 22.0223 56.1209 22.0665 56.0538 22.0963C55.9867 22.1261 55.9138 22.1406 55.8405 22.1388C54.3108 22.2304 52.8738 22.9018 51.8231 24.0159C50.7724 25.1299 50.1873 26.6026 50.1873 28.133C50.1873 29.6634 50.7724 31.136 51.8231 32.2501C52.8738 33.3641 54.3108 34.0355 55.8405 34.1271C56.6221 34.1261 57.3967 33.9801 58.125 33.6967C59.5358 33.1156 60.675 32.0241 61.3146 30.6404C61.664 29.854 61.8474 29.0041 61.8534 28.1437C61.8488 27.3369 61.6803 26.5393 61.358 25.7994C61.0357 25.0595 60.5664 24.3926 59.9784 23.8392C59.9233 23.7863 59.8795 23.7228 59.8499 23.6525C59.8202 23.5822 59.8053 23.5065 59.806 23.4302C59.8203 23.2815 59.8895 23.1435 60 23.0428C62.0885 21.4041 64.3252 19.9631 66.681 18.7382H66.9397C67.0662 18.7395 67.1883 18.7852 67.2845 18.8674L91.1424 37.6569C91.8542 38.2247 92.4291 38.945 92.8245 39.7646C93.2199 40.5842 93.4258 41.4821 93.4269 42.3919V105.906C93.4042 107.495 92.7562 109.011 91.6229 110.127C90.4896 111.243 88.9622 111.868 87.3708 111.868H24.2885Z" fill="#39435E"/>
<path d="M42.3709 73.2773C40.8931 73.3028 39.426 73.0244 38.0605 72.4595C36.8169 71.9669 35.682 71.2357 34.72 70.3072C33.7916 69.3701 33.059 68.2581 32.5648 67.0357C32.0282 65.7696 31.7568 64.4072 31.7674 63.0324C31.7571 61.6785 32.0286 60.3373 32.5648 59.0937C33.6324 56.5988 35.6362 54.6209 38.1467 53.5839C39.5122 53.0189 40.9794 52.7405 42.4571 52.766C43.934 52.7506 45.3992 53.0287 46.7675 53.5839C49.2818 54.604 51.2889 56.5774 52.3494 59.0722C52.8905 60.3225 53.1693 61.6703 53.1684 63.0324C53.1667 64.3852 52.8974 65.7242 52.3759 66.9727C51.8544 68.2211 51.091 69.3543 50.1296 70.3072C49.1561 71.2316 48.015 71.9621 46.7675 72.4595C45.3992 73.0147 43.934 73.2927 42.4571 73.2773H42.3709ZM42.3709 57.8454C41.0652 57.8412 39.8105 58.3517 38.8795 59.2659C37.963 60.2945 37.4567 61.6233 37.4567 63.0002C37.4567 64.377 37.963 65.7058 38.8795 66.7344C39.8134 67.6441 41.0663 68.1533 42.3709 68.1533C43.6755 68.1533 44.9284 67.6441 45.8623 66.7344C46.7788 65.7058 47.2851 64.377 47.2851 63.0002C47.2851 61.6233 46.7788 60.2945 45.8623 59.2659C44.9313 58.3517 43.6766 57.8412 42.3709 57.8454Z" fill="#FFD900"/>
<path d="M43.4267 95.7475C42.9791 95.7501 42.5393 95.6305 42.1548 95.4017C41.7703 95.1729 41.4557 94.8436 41.245 94.4492C41.0342 94.0549 40.9353 93.6105 40.959 93.1641C40.9827 92.7178 41.128 92.2863 41.3793 91.9164L66.1424 54.9831C66.3792 54.6329 66.7012 54.3486 67.0782 54.1566C67.4551 53.9646 67.8747 53.8713 68.2976 53.8854C68.7904 53.8862 69.2713 54.0363 69.6769 54.3159C70.2178 54.6829 70.5916 55.2485 70.7167 55.8895C70.8418 56.5306 70.7082 57.195 70.345 57.738L45.4957 94.6498C45.2564 94.996 44.9333 95.2762 44.5565 95.4643C44.1797 95.6525 43.7615 95.7425 43.3405 95.726L43.4267 95.7475Z" fill="#FFD900"/>
<path d="M69.2243 96.9311C67.7466 96.9565 66.2794 96.6781 64.914 96.1132C63.6664 95.6159 62.5253 94.8854 61.5519 93.9609C60.1171 92.513 59.146 90.6716 58.7622 88.671C58.3784 86.6703 58.5993 84.6009 59.3967 82.7259C59.9087 81.513 60.6392 80.4041 61.5519 79.4544C62.5128 78.5246 63.648 77.7932 64.8924 77.3021C66.2578 76.7372 67.725 76.4588 69.2028 76.4843C70.6801 76.4642 72.1462 76.7424 73.5132 77.3021C74.7732 77.7876 75.9235 78.5194 76.8968 79.4544C77.8126 80.4016 78.5435 81.5111 79.052 82.7259C79.5931 83.9762 79.8719 85.324 79.871 86.6861C79.8693 88.0389 79.6 89.3779 79.0785 90.6264C78.557 91.8748 77.7936 93.0081 76.8321 93.9609C75.8543 94.8902 74.7052 95.6212 73.4485 96.1132C72.0815 96.6729 70.6154 96.9511 69.1381 96.9311H69.2243ZM69.2243 81.4991C67.9186 81.4949 66.664 82.0054 65.7329 82.9196C64.8165 83.9482 64.3102 85.2771 64.3102 86.6539C64.3102 88.0307 64.8165 89.3595 65.7329 90.3881C66.1867 90.8507 66.7307 91.2155 67.3312 91.4598C67.9317 91.7041 68.576 91.8229 69.2243 91.8086C69.8725 91.8169 70.5154 91.6912 71.1126 91.4393C71.7097 91.1874 72.2482 90.8149 72.6942 90.3451C73.6241 89.323 74.1393 87.9917 74.1393 86.6108C74.1393 85.2299 73.6241 83.8986 72.6942 82.8766C72.235 82.4303 71.6921 82.079 71.0967 81.8426C70.5013 81.6062 69.865 81.4895 69.2243 81.4991Z" fill="#FFD900"/>
<path d="M78.5346 36.538C75.5605 36.538 72.7372 36.4088 70.1294 36.1506C66.1537 35.8905 62.2388 35.0418 58.5129 33.6324C55.4526 32.3195 53.7069 30.6192 53.2974 28.553C53.2752 28.2449 53.2752 27.9356 53.2974 27.6275C53.4647 25.5119 54.4363 23.5405 56.0129 22.1176C57.2656 22.1591 58.4729 22.5962 59.4612 23.3659C57.306 25.1739 56.3146 26.8527 56.5086 27.9503C56.7026 29.048 57.8879 29.8659 59.8492 30.6837C60.3664 30.899 60.9483 31.1142 61.6164 31.3294C64.4965 32.1423 67.4484 32.6757 70.4311 32.9221C72.9742 33.1589 75.6898 33.288 78.5562 33.288C80.3234 33.288 82.1338 33.288 83.9657 33.1374C88.9652 32.8865 93.9412 32.2896 98.858 31.351C103.924 30.4114 108.864 28.8874 113.578 26.8096C120.41 23.5596 123.427 19.6425 122.543 15.1442C122.214 13.6195 121.457 12.2196 120.362 11.1071C119.267 9.99467 117.879 9.21527 116.358 8.85948C113.417 7.93953 110.344 7.51048 107.263 7.58963C100.246 7.77042 93.2826 8.87031 86.5519 10.8611C79.7907 12.7217 73.24 15.2749 67.0044 18.4802L64.2242 16.3279C74.8277 10.323 93.0175 4.25358 107.242 4.25358C110.68 4.17176 114.109 4.65158 117.393 5.67409C119.464 6.22465 121.344 7.336 122.823 8.88554C124.302 10.4351 125.324 12.3626 125.776 14.4554C127.565 23.6027 117.974 30.9205 99.483 34.5148C96.1425 35.1605 92.5864 35.6555 88.9226 35.9999C85.2588 36.3443 81.8751 36.538 78.5346 36.538Z" fill="#39435E"/>
<path opacity="0.6" d="M66.918 19.1042C64.5933 20.3358 62.3858 21.7767 60.3232 23.4088C59.1105 22.2526 57.4954 21.6121 55.8188 21.6224C56.1852 21.2565 56.5516 20.9121 56.9611 20.5678C58.9099 18.9371 61.0099 17.4957 63.2327 16.2632L66.918 19.1042Z" fill="#39435E"/>
<path d="M23.0816 105.906V42.3919C23.0945 41.5589 23.2949 40.7394 23.668 39.9943C24.0411 39.2491 24.5773 38.5974 25.2368 38.0873L54.0085 15.1654C55.1757 14.2564 56.53 13.6169 57.9741 13.2929C56.542 12.9708 55.056 12.9717 53.6244 13.2957C52.1927 13.6196 50.8514 14.2583 49.6982 15.1654L20.8402 38.0658C20.1807 38.5758 19.6445 39.2276 19.2714 39.9728C18.8983 40.7179 18.6979 41.5373 18.6851 42.3703V105.906C18.6851 107.367 19.2663 108.769 20.301 109.802C21.3357 110.835 22.7391 111.416 24.2023 111.416H28.5127C27.0644 111.393 25.6831 110.803 24.667 109.772C23.6509 108.741 23.0815 107.353 23.0816 105.906Z" fill="#39435E"/>
</svg>
