<svg width="123" height="120" viewBox="0 0 123 120" fill="none" xmlns="http://www.w3.org/2000/svg">
<g clip-path="url(#clip0_3_1279)">
<path opacity="0.1" d="M103.768 96.9846C94.3041 106.304 82.5858 113.071 69.7293 116.642C55.9185 120.686 39.5125 122.163 29.6476 114.884C19.7828 107.604 16.5833 91.5165 15.0725 77.1165C13.5617 62.7165 13.7927 49.9165 19.5517 41.0901C25.3107 32.2637 36.8108 27.3934 48.7198 19.3407C60.6287 11.2879 73.0887 0 85.3176 0C97.5465 0 109.562 11.0593 116.263 23.8593C122.605 36.2161 124.552 50.3261 121.791 63.9121C119.169 76.438 112.905 87.9333 103.768 96.9846Z" fill="#3B4652"/>
<path opacity="0.8" d="M52.2927 70.8921H52.1149C52.034 70.8547 51.9658 70.795 51.9185 70.7201C51.8712 70.6452 51.8468 70.5584 51.8483 70.4701V58.3558H49.0577C47.4738 58.3558 45.9547 57.7334 44.8347 56.6255C43.7147 55.5176 43.0854 54.0149 43.0854 52.4481V26.813C43.0854 25.2461 43.7147 23.7435 44.8347 22.6356C45.9547 21.5277 47.4738 20.9053 49.0577 20.9053H104.674C106.255 20.9099 107.77 21.5344 108.886 22.6418C110.002 23.7492 110.629 25.2492 110.629 26.813V52.4481C110.629 54.0119 110.002 55.5119 108.886 56.6193C107.77 57.7267 106.255 58.3512 104.674 58.3558H65.1437L52.5948 70.769C52.5557 70.809 52.5087 70.8405 52.4567 70.8617C52.4047 70.8829 52.3489 70.8932 52.2927 70.8921Z" fill="#FFD900"/>
<path d="M63.6685 35.2527C63.6769 34.6692 63.5498 34.0916 63.2972 33.5642C63.0445 33.0369 62.6729 32.574 62.211 32.211C61.266 31.5016 60.1089 31.1242 58.9227 31.1384C58.3696 31.0854 57.8113 31.142 57.2806 31.3051C56.7499 31.4681 56.2574 31.7343 55.832 32.0879C55.4066 32.4416 55.0568 32.8757 54.8031 33.3648C54.5494 33.8539 54.3969 34.3881 54.3546 34.9362C54.3546 36.1143 54.8878 36.2725 55.4744 36.2725C56.4342 36.2725 56.8608 35.7978 56.8608 35.4461C56.849 34.8959 57.0587 34.3635 57.4437 33.9662C57.8287 33.5689 58.3575 33.3391 58.9138 33.3274C59.47 33.3158 60.0082 33.5232 60.4099 33.904C60.8116 34.2849 61.0438 34.808 61.0556 35.3582C61.0556 36.9055 59.4204 38.1011 57.6784 39.367C55.9365 40.6329 54.1235 41.9692 54.1235 43.5692V45.7143C54.1235 46.0307 54.7456 46.3472 55.2078 46.3472H63.0997C63.3485 46.3472 63.7218 45.8901 63.7218 45.2571C63.7218 44.6242 63.3485 44.2022 63.0997 44.2022H56.8786V43.5868C56.8786 42.5846 58.0517 41.8285 59.4026 40.8615C61.2689 39.5428 63.6685 37.9252 63.6685 35.2527Z" fill="#4D4D4D"/>
<path d="M74.3688 40.633H73.0002V38.6813C73.0002 38.3824 72.5914 38.0659 71.6849 38.0659C70.7784 38.0659 70.3873 38.3824 70.3873 38.6813V40.633H67.3656L71.596 32.2462C71.6086 32.1705 71.6086 32.0933 71.596 32.0176C71.596 31.7363 71.3116 31.5253 71.1516 31.4198C70.8935 31.2611 70.6012 31.1647 70.2984 31.1385C70.0758 31.1317 69.8561 31.1898 69.6665 31.3054C69.4769 31.4211 69.3258 31.5892 69.232 31.789L64.1129 41.7231C64.0301 41.8678 63.9872 42.0315 63.9885 42.1978C63.9783 42.2974 63.9897 42.398 64.022 42.4928C64.0543 42.5877 64.1067 42.6747 64.1757 42.7479C64.2447 42.8211 64.3287 42.879 64.4221 42.9175C64.5154 42.9561 64.6161 42.9744 64.7172 42.9714H70.3873V45.7143C70.3873 46.0132 70.8495 46.3472 71.6849 46.3472C72.5203 46.3472 73.0002 46.0132 73.0002 45.7143V42.9538H74.3688C74.5821 42.9538 75.0087 42.4264 75.0087 41.7934C75.0087 41.1604 74.6532 40.633 74.3688 40.633Z" fill="#4D4D4D"/>
<path d="M85.9046 30.2417C85.7936 30.2347 85.6828 30.259 85.5852 30.312C85.4877 30.3649 85.4073 30.4442 85.3536 30.5406L77.5683 46.3648C77.5514 46.44 77.5514 46.5181 77.5683 46.5933C77.5862 46.7954 77.6801 46.9835 77.8316 47.1203C77.983 47.2571 78.1809 47.3326 78.386 47.3318C78.5066 47.3368 78.6266 47.3122 78.7351 47.26C78.8437 47.2078 78.9375 47.1298 79.0081 47.0329L86.8111 31.2087C86.8315 31.1338 86.8315 31.055 86.8111 30.9801C86.7886 30.7638 86.6808 30.565 86.5112 30.4268C86.3415 30.2885 86.1235 30.222 85.9046 30.2417Z" fill="#4D4D4D"/>
<path d="M98.5603 31.1385H90.6507C90.0819 31.1385 89.5664 31.5253 89.5664 31.7715V35.1649C89.5664 35.4638 90.1352 35.7979 90.8462 35.7979C91.5572 35.7979 92.1793 35.4286 92.1793 35.1649V33.2836H96.9962V35.3407V35.4462L91.5394 44.7825C91.4743 44.8945 91.4434 45.0227 91.4505 45.1517C91.4505 45.8902 92.3748 46.4528 93.228 46.4528C93.7079 46.4528 93.7968 46.2946 93.8323 46.2242L99.0225 36.3957C99.3641 35.8172 99.5876 35.178 99.6801 34.5143V31.7715C99.5764 31.5693 99.4151 31.4016 99.2161 31.2891C99.0171 31.1766 98.7891 31.1243 98.5603 31.1385Z" fill="#4D4D4D"/>
<path opacity="0.6" d="M60.149 109.697C47.2624 109.697 31.7097 101.978 19.5341 89.5298C0.390912 69.9606 -5.3325 44.5891 6.8964 32.932C7.13628 32.7184 7.41753 32.5553 7.72308 32.4526C8.02863 32.3498 8.3521 32.3095 8.67386 32.3342C11.1801 32.3342 15.3749 34.9012 19.1253 38.7342C23.1957 42.9188 29.9678 52.1672 27.8171 54.2419C25.4805 56.5054 24.1389 59.5878 24.0823 62.8223C24.0258 66.0569 25.2589 69.1833 27.5149 71.5254L38.0374 82.2858C40.328 84.5947 43.4455 85.9187 46.7153 85.9713C49.9852 86.024 53.1445 84.8011 55.5098 82.5671C55.6637 82.4308 55.8437 82.3263 56.039 82.2598C56.2344 82.1934 56.4413 82.1664 56.6474 82.1803C59.7224 82.1803 67.0277 87.7012 70.8671 91.6748C75.8973 96.7913 78.2435 102.048 76.3238 103.877C71.9266 107.84 66.1285 109.931 60.1845 109.697H60.149Z" fill="#39435E"/>
<path d="M24.8841 88.8615C6.2386 69.8373 0.461865 45.4153 11.5532 33.6351C9.59799 32.7032 7.99828 32.4923 7.19843 33.2483C-4.79941 44.7472 0.852906 69.8022 19.8539 89.2131C34.0736 103.824 51.8481 111.068 64.948 108.87C52.5947 108.8 37.3263 101.697 24.8841 88.8615Z" fill="#39435E"/>
<path d="M59.4385 83.5517C57.661 82.6726 56.3279 82.3385 55.7591 82.8835C54.2097 84.3389 52.3147 85.385 50.249 85.9253C53.5069 86.3349 56.7989 85.4846 59.4385 83.5517Z" fill="#6F8489"/>
<path d="M55.1839 68.1056V58.3518H52.0409C50.6165 58.3518 49.2504 57.7562 48.2432 56.696C47.236 55.6359 46.6702 54.754 46.6702 53.2547V26.7035C46.6702 25.2042 47.236 23.7663 48.2432 22.7061C49.2504 21.6459 50.6165 21.0503 52.0409 21.0503H48.587C47.1626 21.0503 45.7966 21.6459 44.7894 22.7061C43.7821 23.7663 43.2163 25.2042 43.2163 26.7035V53.2547C43.2163 54.754 43.7821 55.6359 44.7894 56.696C45.7966 57.7562 47.1626 58.3518 48.587 58.3518H51.73V71.8683L55.1839 68.1056Z" fill="#C9AB00"/>
</g>
<defs>
<clipPath id="clip0_3_1279">
<rect width="123" height="120" fill="white"/>
</clipPath>
</defs>
</svg>
