<svg width="194" height="102" viewBox="0 0 194 102" fill="none" xmlns="http://www.w3.org/2000/svg">
<path d="M41.149 8.95036L39.7568 0H34.3866L32.7954 13.525L41.149 8.95036Z" fill="#FFD900"/>
<path d="M101.813 26.0555L57.6575 0.994484L13.5024 25.8566L15.0936 28.6411L19.7544 26.2889V72.6836H0V75.2956H22.3664V24.9707L57.6575 7.16029L92.9484 24.9707V75.2956H193.269V72.6836H95.5604V26.2889L100.221 28.6411L101.813 26.0555Z" fill="#FFD900"/>
<path d="M0 100H193.269" stroke="#3B4652" stroke-width="2.5"/>
<path d="M64.6788 18.0465C60.6626 14.0302 54.151 14.0303 50.1348 18.0465L42.8628 25.3185L57.4068 39.8625L71.9508 25.3185L64.6788 18.0465Z" fill="#39435E"/>
<path d="M57.4068 45.767L42.8628 60.311L50.4807 67.9289C54.3059 71.7541 60.5077 71.7541 64.3329 67.9289L71.9508 60.311L57.4068 45.767Z" fill="#39435E"/>
<path d="M74.8597 27.8846L60.3157 42.4286L74.8597 56.9726L82.4776 49.3547C86.3028 45.5296 86.3028 39.3277 82.4776 35.5026L74.8597 27.8846Z" fill="#FFD900"/>
<path d="M40.0112 27.8846L32.3933 35.5026C28.5681 39.3277 28.5681 45.5296 32.3933 49.3547L40.0112 56.9726L54.5552 42.4286L40.0112 27.8846Z" fill="#FFD900"/>
<path d="M54.577 57.9717C54.604 57.957 54.6274 57.9417 54.6549 57.9265C54.6139 58.0313 54.6007 58.1208 54.602 58.2003C54.5876 58.1356 54.5778 58.0691 54.5765 57.9995C54.5757 58.0856 54.5855 58.1669 54.6044 58.2421C54.6032 58.2286 54.602 58.2147 54.602 58.2003C54.6245 58.3003 54.6619 58.3933 54.7119 58.478C54.7033 58.4694 54.6955 58.4602 54.6877 58.4507C54.9829 58.9744 55.7882 59.0887 56.1855 58.548C56.8232 57.6797 56.1724 56.744 56.0814 55.8248C55.9674 54.6726 56.6489 53.5539 57.4944 52.8846C57.029 53.683 57.6424 54.7387 58.1328 55.3293C58.6084 55.9017 59.1874 56.3798 59.7122 56.8995C60.2764 57.458 60.8189 58.0465 61.2827 58.7019C62.2102 60.0135 62.7785 61.6637 62.3611 63.3005C61.944 64.9363 60.6073 65.9776 59.098 66.3457C59.8594 65.9968 60.5721 65.1102 60.5737 64.2027C60.5758 63.2135 59.9845 62.3734 59.2485 61.8215C59.337 62.1757 59.385 62.4995 59.1661 62.8163C58.9623 63.111 58.6055 63.254 58.2689 63.1762C57.4821 62.9936 57.4456 62.0766 57.9122 61.542C58.3735 61.0131 58.82 60.4151 58.6441 59.648C58.5559 59.2634 58.3333 58.9031 58.0508 58.6458C58.2677 59.2503 57.651 59.8462 57.2451 60.143C56.5402 60.658 55.7673 61.0474 55.119 61.6511C54.4375 62.2856 53.934 63.1436 54.0357 64.1388C54.146 65.2175 54.9546 65.9676 55.8616 66.3462C53.9451 65.8977 51.9646 64.3209 51.924 62.0679C51.8904 60.2143 53.0902 58.7879 54.5761 57.9713L54.577 57.9717Z" fill="white"/>
<path d="M60.7123 22.7156H63.6006V22.1304C63.6006 21.6524 63.3971 21.1886 62.9936 20.9325C61.1508 19.7629 58.2988 19.3002 56.7116 19.2097C56.4706 19.1959 56.2743 19.3909 56.2743 19.6323C56.2743 19.7952 56.3657 19.9442 56.5109 20.018L60.5337 22.0613C60.6433 22.117 60.7123 22.2295 60.7123 22.3524V22.7156Z" fill="white"/>
<path fill-rule="evenodd" clip-rule="evenodd" d="M60.7123 23.1383H63.6006V29.6193H60.501V29.2098C60.501 28.7464 60.3369 28.2951 60.0311 27.9469C56.7665 24.2296 54.4925 23.1219 53.6027 23.0076C53.5195 22.9969 53.4501 23.0609 53.4417 23.1444L53.4007 23.5548C53.3923 23.6383 53.3221 23.7018 53.2382 23.7018H51.4142C51.3329 23.7018 51.2639 23.6421 51.2536 23.5615C51.0765 22.1735 51.3314 21.4476 53.1042 21.4476C55.2262 21.3917 58.6761 23.4062 60.1782 24.4482C60.2056 24.4672 60.2372 24.4768 60.2706 24.4768H60.3858C60.5662 24.4768 60.7123 24.3306 60.7123 24.1503V23.1383ZM62.2279 24.0917C62.2279 23.8212 62.4471 23.602 62.7176 23.602C62.9881 23.602 63.2074 23.8212 63.2074 24.0917V28.8116C63.2074 29.0821 62.9881 29.3013 62.7176 29.3013C62.4471 29.3013 62.2279 29.0821 62.2279 28.8116V24.0917Z" fill="white"/>
<path d="M64.0233 31.5918V30.5351C64.0233 30.3238 63.8824 30.1124 63.6006 30.1124H60.501C60.2192 30.1124 60.0783 30.3238 60.0783 30.5351V31.5918H64.0233Z" fill="white"/>
<path d="M52.3313 24.3649L51.715 25.3455C51.5661 25.5823 51.5661 25.8834 51.715 26.1203C52.0004 26.5744 52.6622 26.5744 52.9476 26.1203C53.0965 25.8834 53.0965 25.5823 52.9476 25.3455L52.3313 24.3649Z" fill="white"/>
<path fill-rule="evenodd" clip-rule="evenodd" d="M36.3952 39.1009H34.6181V38.64H36.3952V39.1009ZM36.3952 40.0225H35.0699V39.5617H36.3952V40.0225ZM36.3952 40.9134H34.6155L34.6332 40.468L36.3952 40.4517V40.9134ZM36.3952 41.8351H35.0699V41.3742H36.3952V41.8351ZM36.3952 42.7567H34.6181V42.2959H36.3952V42.7567ZM36.3733 43.2054C36.3853 43.2177 36.3952 43.3222 36.3952 43.4377V43.6476H35.0673L35.085 43.2022L35.7182 43.1926C36.0665 43.1874 36.3612 43.1932 36.3733 43.2054ZM36.3952 44.5693H34.6181V44.1084H36.3952V44.5693ZM36.3952 45.4909H35.0699V45.0301H36.3952V45.4909ZM36.3952 46.3818H34.6155L34.6332 45.9364L36.3952 45.9201V46.3818Z" fill="#39435E"/>
<path fill-rule="evenodd" clip-rule="evenodd" d="M41.0158 34.636C41.0269 34.6473 41.0359 34.7648 41.0359 34.8971C41.0359 35.0295 41.0449 35.1378 41.0559 35.1378C41.067 35.1378 41.1607 35.0548 41.2642 34.9535C41.3677 34.8521 41.4723 34.7691 41.4967 34.7691C41.5394 34.7691 41.7588 34.9929 41.7588 35.0365C41.7588 35.0483 41.5961 35.2258 41.3974 35.4309L41.0359 35.8038V36.1006C41.0359 36.2638 41.0449 36.3974 41.0559 36.3974C41.067 36.3974 41.1607 36.3144 41.2642 36.213C41.3677 36.1117 41.4723 36.0287 41.4967 36.0287C41.5381 36.0287 41.7588 36.2519 41.7588 36.2938C41.7588 36.3043 41.5961 36.4822 41.3974 36.6892L41.0359 37.0655V37.7606C41.0359 38.1429 41.0463 38.4557 41.0589 38.4557C41.0715 38.4557 41.2813 38.2518 41.5251 38.0025L41.9683 37.5494L41.9847 36.5356L42.1452 36.5262C42.3724 36.513 42.3913 36.5381 42.3913 36.8535V37.1178L42.8417 36.6614L42.8581 35.6447L43.0187 35.6353C43.2458 35.622 43.2647 35.6472 43.2647 35.9624V36.2265L43.4388 36.0508C43.5354 35.9533 43.64 35.8751 43.6739 35.8751C43.7504 35.8751 43.9274 36.0578 43.9274 36.1368C43.9274 36.1693 43.8499 36.2758 43.7551 36.3734L43.5829 36.551H43.8173C44.1353 36.551 44.1683 36.5727 44.1683 36.7814C44.1683 36.9149 44.1567 36.9545 44.1101 36.98C44.0772 36.9979 43.8507 37.0118 43.5897 37.0118H43.1276L42.7092 37.4419H42.9697C43.2792 37.4419 43.325 37.4716 43.325 37.6723C43.325 37.8938 43.3024 37.9027 42.7427 37.9027H42.255L41.8262 38.3409C41.5903 38.5819 41.3974 38.7892 41.3974 38.8017C41.3974 38.8141 41.7059 38.8243 42.083 38.8243H42.7687L43.1292 38.4557C43.3275 38.2529 43.5041 38.087 43.5217 38.087C43.5698 38.087 43.7768 38.3132 43.7768 38.3658C43.7768 38.3909 43.6955 38.4936 43.5961 38.5939C43.4967 38.6943 43.4153 38.7871 43.4153 38.8004C43.4153 38.8135 43.5477 38.8243 43.7095 38.8243H44.0036L44.3641 38.4557C44.5624 38.2529 44.739 38.087 44.7566 38.087C44.8047 38.087 45.0117 38.3132 45.0117 38.3658C45.0117 38.3909 44.9303 38.4936 44.831 38.5939C44.7316 38.6943 44.6502 38.7871 44.6502 38.8004C44.6502 38.8135 44.7582 38.8243 44.8901 38.8243C45.1594 38.8243 45.1924 38.849 45.1924 39.0505C45.1924 39.2174 45.1336 39.2544 44.8692 39.2544H44.6407L44.8262 39.4515C44.9282 39.5598 45.0117 39.6718 45.0117 39.7003C45.0117 39.7664 44.8224 39.961 44.7582 39.961C44.7314 39.961 44.5505 39.8021 44.3561 39.6079L44.0027 39.2547L43.4058 39.2544L43.5913 39.4515C43.6933 39.5598 43.7768 39.6759 43.7768 39.7094C43.7768 39.7777 43.5886 39.961 43.5186 39.961C43.4937 39.961 43.3146 39.8024 43.1206 39.6085L42.7678 39.256L41.383 39.2544L42.2851 40.1761H42.7739C43.3165 40.1761 43.325 40.1794 43.325 40.3911C43.325 40.5858 43.2929 40.6062 42.9858 40.6062H42.709L43.1564 41.0656L44.1533 41.0824V41.4817L43.5891 41.4995L43.7583 41.6804C43.8574 41.7864 43.9274 41.8888 43.9274 41.928C43.9274 41.9982 43.7481 42.2037 43.6868 42.2037C43.6672 42.2037 43.5642 42.1186 43.4579 42.0145L43.2647 41.8253V42.0779C43.2647 42.4037 43.2408 42.4495 43.0704 42.4495C42.9823 42.4495 42.9283 42.4527 42.8952 42.4275C42.8392 42.3848 42.8431 42.2604 42.8431 41.9001V41.388L42.3913 40.9303V41.1962C42.3913 41.3969 42.3797 41.4738 42.344 41.5103C42.2876 41.5678 42.0585 41.5755 42.0058 41.5217C41.9807 41.4961 41.9696 41.3348 41.9696 40.994V40.5033L41.5279 40.0491C41.285 39.7993 41.0749 39.6021 41.0611 39.6109C41.0472 39.6196 41.0359 39.9328 41.0359 40.307V40.9872L41.3974 41.3601C41.5961 41.5652 41.7588 41.7486 41.7588 41.7676C41.7588 41.8334 41.5723 42.0194 41.5062 42.0194C41.4661 42.0194 41.3718 41.9485 41.2632 41.8365C41.1656 41.7359 41.0746 41.6607 41.0609 41.6693C41.0472 41.678 41.0359 41.8104 41.0359 41.9636V42.2422L41.3974 42.6184C41.5961 42.8254 41.7588 43.0098 41.7588 43.0282C41.7588 43.0932 41.5717 43.2789 41.5062 43.2789C41.4661 43.2789 41.3718 43.208 41.2632 43.0961C41.1656 42.9955 41.0746 42.9203 41.0609 42.9289C41.0472 42.9376 41.0359 43.0447 41.0359 43.1671C41.0359 43.2992 41.0212 43.4045 40.9998 43.4264C40.947 43.4802 40.7179 43.4725 40.6616 43.415C40.6268 43.3795 40.6142 43.3044 40.6142 43.1317V42.8967L40.4252 43.0878C40.3128 43.2014 40.2102 43.2789 40.1723 43.2789C40.1063 43.2789 39.9215 43.091 39.9215 43.0239C39.9215 43.0031 40.0774 42.8275 40.2679 42.6338L40.6142 42.2815V41.6371L40.4252 41.8282C40.3128 41.9418 40.2102 42.0194 40.1723 42.0194C40.1063 42.0194 39.9215 41.8314 39.9215 41.7643C39.9215 41.7435 40.0774 41.568 40.2679 41.3742L40.6142 41.0219V39.5778L39.8315 40.3747C39.8317 40.3901 39.8322 40.3992 39.8322 40.3992V46.3829L40.0093 46.5425C40.3387 46.8392 40.5978 47.2576 40.7408 47.7237C40.8017 47.9221 40.8152 48.1443 40.8114 48.4161C40.8051 48.8718 40.7742 49.1333 40.5704 49.5568C40.3265 50.0636 39.9516 50.4474 39.4555 50.698C39.0706 50.8924 38.7816 50.9617 38.3558 50.9615C37.2178 50.9611 36.2549 50.2064 35.9537 49.079C35.8787 48.798 35.8786 48.0656 35.9536 47.7841C36.0753 47.3268 36.3652 46.8461 36.7023 46.5425L36.8794 46.3829V42.8807C36.8794 40.5058 36.8899 39.3196 36.912 39.1956C36.9885 38.7655 37.315 38.341 37.6834 38.1927C37.9245 38.0956 38.6217 38.0705 38.8884 38.1492C39.1681 38.2319 39.4535 38.4455 39.5934 38.6772L39.6563 38.7814C39.6563 38.7814 39.6643 38.7974 39.6767 38.8243H39.9189C40.097 38.8243 40.2523 38.8146 40.2639 38.8028C40.2756 38.7909 40.0916 38.5835 39.8552 38.342L39.4253 37.9027H38.9376C38.3779 37.9027 38.3553 37.8938 38.3553 37.6723C38.3553 37.4716 38.4011 37.4419 38.7106 37.4419H38.9711L38.5527 37.0118H38.0646C37.5067 37.0118 37.4815 37.0021 37.4823 36.7869C37.483 36.5841 37.5061 36.5671 37.7895 36.5607C37.9267 36.5576 38.0522 36.5541 38.0682 36.553C38.0843 36.5519 38.0199 36.4711 37.9252 36.3734C37.8304 36.2758 37.753 36.1686 37.7531 36.1353C37.7532 36.0541 37.9214 35.8751 37.9976 35.8751C38.0312 35.8751 38.1384 35.9527 38.2359 36.0476L38.4132 36.2201L38.4306 35.6447H38.8222L38.8386 36.6614L39.289 37.1178L39.2895 36.8574C39.2897 36.7142 39.3011 36.579 39.3148 36.557C39.3319 36.5295 39.3957 36.5198 39.5177 36.5262L39.6956 36.5356L39.7121 37.5516L40.6142 38.4703V37.055L40.2679 36.6978C40.0774 36.5013 39.9215 36.3171 39.9215 36.2886C39.9215 36.2281 40.1244 36.0287 40.186 36.0287C40.2091 36.0287 40.3148 36.1138 40.4211 36.2179L40.6142 36.4071V35.7946L40.2826 35.4586C40.1002 35.2738 39.943 35.097 39.9332 35.0656C39.9135 35.0022 40.1125 34.7691 40.1863 34.7691C40.2091 34.7691 40.3148 34.8543 40.4211 34.9583L40.6142 35.1475V34.9184C40.6142 34.7811 40.6287 34.6745 40.6504 34.6524C40.6883 34.6137 40.9812 34.6006 41.0158 34.636ZM39.8061 39.2544H40.2967L40.0429 39.5146C39.9549 39.6048 39.8761 39.6835 39.8292 39.7284C39.8282 39.609 39.8267 39.5092 39.824 39.4674C39.824 39.4674 39.8134 39.3509 39.8061 39.2544ZM39.3364 39.4122C39.3326 39.3667 39.3279 39.3101 39.3244 39.2606L38.7547 38.6203C38.6994 38.604 38.5237 38.5868 38.2933 38.5951C38.1878 38.5989 38.0866 38.6075 38.0026 38.6195C37.9607 38.6255 37.9261 38.6319 37.8993 38.638C37.8732 38.6441 37.8613 38.6483 37.86 38.6488C37.6636 38.7279 37.4408 38.9962 37.3871 39.272C37.3867 39.2769 37.3857 39.2906 37.3844 39.3166C37.3823 39.3597 37.3802 39.4209 37.3782 39.5021C37.3742 39.6639 37.3709 39.8949 37.3682 40.1985C37.3628 40.8051 37.3602 41.6936 37.3602 42.8807V46.6041L37.0205 46.9101C36.7563 47.1481 36.5155 47.5446 36.4175 47.9126C36.3979 47.9865 36.3781 48.1844 36.3782 48.4317C36.3782 48.6791 36.398 48.8767 36.4176 48.9501C36.6623 49.8662 37.4369 50.4708 38.356 50.4711C38.7069 50.4713 38.923 50.4198 39.2422 50.2585C39.6433 50.0559 39.9416 49.7506 40.1388 49.3407C40.3008 49.0042 40.325 48.8215 40.3307 48.4092C40.3343 48.1501 40.3193 47.9918 40.282 47.8702C40.1628 47.4816 39.9488 47.1422 39.6911 46.9101L39.3514 46.6041V40.4126C39.3512 40.4076 39.3511 40.4032 39.3511 40.4005C39.3509 40.391 39.3507 40.3796 39.3506 40.3681C39.3504 40.3443 39.3503 40.3113 39.3502 40.273L39.35 40.1533C39.3499 40.1026 39.3498 40.0476 39.3496 39.9857C39.349 39.767 39.3476 39.563 39.3446 39.5046L39.3427 39.4835C39.3411 39.4655 39.3389 39.4405 39.3364 39.4122ZM39.3244 39.2606L38.7547 38.6203C38.9311 38.6724 39.1127 38.8163 39.184 38.9344L39.2349 39.0187L39.2397 39.0289C39.2485 39.0479 39.2606 39.0752 39.2733 39.1068C39.2979 39.1675 39.316 39.2227 39.3244 39.2606Z" fill="#39435E"/>
<path fill-rule="evenodd" clip-rule="evenodd" d="M38.9114 44.504C38.8831 44.4521 38.8149 44.3866 38.7599 44.3586C38.6818 44.3188 38.592 44.3094 38.3512 44.3159C38.0182 44.3249 37.9153 44.3666 37.8342 44.5253C37.805 44.5822 37.777 44.885 37.777 45.7231V46.9512L37.633 47.0247C37.2841 47.203 36.9653 47.5691 36.8338 47.9426C36.7451 48.1943 36.7261 48.5837 36.7893 48.8536C36.9211 49.4171 37.3589 49.8747 37.9265 50.0423C38.1413 50.1057 38.566 50.1054 38.7794 50.0418C39.3433 49.8735 39.8051 49.4026 39.9267 48.872C39.9712 48.6776 39.9663 48.2449 39.9174 48.0604C39.8124 47.6638 39.4822 47.242 39.1335 47.0589L38.9594 46.9674L38.9575 45.7231C38.9578 45.5718 38.9586 45.4395 38.9592 45.3235C38.9623 44.7853 38.9633 44.5993 38.9114 44.504ZM37.3188 47.6358C37.2832 47.6738 37.2053 47.8086 37.1456 47.9353C37.0421 48.1553 37.0372 48.4883 37.0372 48.4883C37.0372 48.4883 37.044 48.8257 37.1337 49.0202C37.2744 49.3253 37.3402 49.4099 37.437 49.4099C37.6168 49.4099 37.6325 49.2929 37.4933 48.991C37.4049 48.7992 37.3961 48.4883 37.3961 48.4883C37.3961 48.4883 37.4049 48.1774 37.4933 47.9856C37.6027 47.7483 37.6147 47.6456 37.5382 47.5998C37.4553 47.5503 37.3886 47.5612 37.3188 47.6358Z" fill="#39435E"/>
<path fill-rule="evenodd" clip-rule="evenodd" d="M73.7401 39.6572C73.7126 39.6066 73.6381 39.5253 73.5847 39.498C73.509 39.4592 73.345 39.447 73.1115 39.4533C72.7887 39.4621 72.7043 39.4725 72.6103 39.6572C72.5889 39.6992 72.5999 42.7644 72.6065 44.6054L72.6065 44.6058C72.6086 45.1964 72.6103 45.6609 72.6103 45.8591V47.0553L72.4707 47.127C72.1324 47.3006 71.8233 47.6572 71.6958 48.021C71.6099 48.2661 71.5915 48.6455 71.6527 48.9083C71.7805 49.4572 72.205 49.9029 72.7552 50.0661C72.9635 50.1279 73.3752 50.1277 73.5821 50.0656C74.1289 49.9017 74.5766 49.4431 74.6944 48.9262C74.7376 48.7369 74.7328 48.3154 74.6855 48.1358C74.5836 47.7495 74.2635 47.3386 73.9254 47.1602L73.7566 47.0712L73.7548 45.8591C73.7551 45.7084 73.7568 45.4119 73.7591 45.0269C73.7693 43.2896 73.7901 39.7495 73.7401 39.6572ZM72.1661 47.7222C72.1316 47.7592 72.056 47.8905 71.9982 48.0139C71.8978 48.2282 71.8931 48.5525 71.8931 48.5525C71.8931 48.5525 71.8997 48.8812 71.9866 49.0706C72.123 49.3678 72.1869 49.4502 72.2807 49.4502C72.455 49.4502 72.4702 49.3362 72.3353 49.0421C72.2495 48.8553 72.241 48.5525 72.241 48.5525C72.241 48.5525 72.2495 48.2497 72.3353 48.0629C72.4414 47.8317 72.4529 47.7317 72.3788 47.6872C72.2985 47.6389 72.2337 47.6495 72.1661 47.7222Z" fill="#39435E"/>
<path fill-rule="evenodd" clip-rule="evenodd" d="M74.6014 40.4358C74.601 40.1972 74.6004 39.8529 74.5949 39.7659C74.5949 39.7659 74.5798 39.5998 74.5736 39.503C74.5444 39.3228 74.4323 39.0978 74.4323 39.0978L74.3713 38.9963C74.2357 38.7706 73.959 38.5625 73.6878 38.482C73.4292 38.4053 72.7533 38.4298 72.5196 38.5243C72.1624 38.6688 71.8459 39.0823 71.7717 39.5012C71.7503 39.622 71.7401 40.7774 71.7401 43.0906V46.5019L71.5684 46.6573C71.2416 46.953 70.9605 47.4212 70.8425 47.8666C70.7698 48.1409 70.7699 48.8542 70.8427 49.1279C71.1347 50.226 72.0682 50.9611 73.1715 50.9615C73.5842 50.9617 73.8644 50.8942 74.2377 50.7048C74.7185 50.4608 75.082 50.0869 75.3185 49.5933C75.5161 49.1807 75.5461 48.9261 75.5522 48.4822C75.5558 48.2174 75.5428 48.001 75.4837 47.8078C75.3451 47.3538 75.0938 46.9462 74.7746 46.6573L74.6028 46.5019V40.6735C74.6018 40.6722 74.6016 40.571 74.6014 40.4358ZM74.1222 39.7122C74.1184 39.6679 74.1139 39.6127 74.1105 39.5645C74.1023 39.5276 74.0848 39.4739 74.061 39.4148C74.0486 39.3839 74.0369 39.3574 74.0284 39.3389L74.0238 39.3289L73.9745 39.2468C73.9053 39.1318 73.7292 38.9916 73.5582 38.9408C73.5046 38.9249 73.3343 38.9082 73.1108 38.9163C73.0086 38.92 72.9105 38.9284 72.829 38.9401C72.7884 38.9459 72.7549 38.9521 72.7289 38.9581C72.7036 38.964 72.6919 38.9682 72.6907 38.9686C72.5003 39.0457 72.2844 39.307 72.2323 39.5756L72.2322 39.577C72.2318 39.5827 72.2308 39.5958 72.2297 39.6191C72.2277 39.661 72.2256 39.7207 72.2237 39.7997C72.2198 39.9573 72.2166 40.1823 72.214 40.478C72.2088 41.0689 72.2062 41.9343 72.2062 43.0906V46.7173L71.8769 47.0153C71.6207 47.2472 71.3873 47.6334 71.2923 47.9918C71.2733 48.0637 71.2541 48.2566 71.2542 48.4974C71.2542 48.7383 71.2734 48.9308 71.2924 49.0023C71.5297 49.8947 72.2806 50.4835 73.1717 50.4839C73.5119 50.484 73.7213 50.4338 74.0308 50.2768C74.4197 50.0794 74.7089 49.782 74.9001 49.3828C75.0571 49.055 75.0806 48.877 75.0861 48.4755C75.0896 48.2231 75.0751 48.0689 75.0389 47.9505C74.9233 47.5719 74.7159 47.2414 74.466 47.0153L74.1367 46.7173V40.6866C74.1365 40.6817 74.1364 40.6775 74.1364 40.6748C74.1362 40.6656 74.136 40.6545 74.1359 40.6432C74.1358 40.62 74.1356 40.588 74.1355 40.5506L74.1353 40.4349C74.1352 40.3853 74.1351 40.3314 74.135 40.2708C74.1344 40.0578 74.133 39.859 74.1301 39.8022L74.1282 39.7817C74.1267 39.7641 74.1245 39.7397 74.1222 39.7122Z" fill="#39435E"/>
<path fill-rule="evenodd" clip-rule="evenodd" d="M71.27 39.1285C71.2782 39.1505 71.281 39.2463 71.2763 39.3413L71.2676 39.514L69.564 39.5296V39.0886H70.4095C71.0966 39.0886 71.2579 39.0961 71.27 39.1285ZM71.2676 40.3942L69.9935 40.41V39.9688H71.2844L71.2676 40.3942ZM71.2624 40.8387C71.2731 40.8497 71.2819 40.9489 71.2819 41.0592V41.2597H69.5615L69.5784 40.8343L70.4106 40.8265C70.8683 40.8222 71.2516 40.8277 71.2624 40.8387ZM71.2628 41.7193C71.2733 41.7301 71.2819 41.8291 71.2819 41.9394V42.1399H69.9935V41.6998H70.6186C70.9624 41.6998 71.2523 41.7086 71.2628 41.7193ZM71.27 42.6199C71.2782 42.6419 71.281 42.7376 71.2763 42.8326L71.2676 43.0054L69.564 43.0209V42.5799H70.4095C71.0966 42.5799 71.2579 42.5874 71.27 42.6199ZM71.2461 43.4499C71.2698 43.4599 71.2819 43.5332 71.2819 43.6679V43.8709H69.991L70.0078 43.4455L70.6091 43.4401C70.9397 43.4372 71.2264 43.4416 71.2461 43.4499ZM71.2628 44.3305C71.2733 44.3413 71.2819 44.4403 71.2819 44.5506V44.751H69.564V44.311H70.4039C70.8658 44.311 71.2523 44.3198 71.2628 44.3305ZM71.27 45.2311C71.2782 45.2531 71.281 45.3488 71.2763 45.4438L71.2676 45.6166L69.9935 45.6323V45.1911H70.6243C71.1301 45.1911 71.258 45.1991 71.27 45.2311ZM71.2624 46.0611C71.2731 46.0721 71.2819 46.1713 71.2819 46.2816V46.4821H69.5615L69.5784 46.0566L70.4106 46.0489C70.8683 46.0446 71.2516 46.0501 71.2624 46.0611Z" fill="#39435E"/>
<path d="M74.1233 37.4244C73.7183 37.7337 73.4206 38.1673 73.274 38.6617V38.8077H73.7458C73.862 38.4161 74.0977 38.0727 74.4186 37.8276C74.7394 37.5826 75.1286 37.4488 75.5292 37.4457C75.9299 37.4427 76.3209 37.5705 76.6453 37.8107C76.9698 38.0508 77.2105 38.3905 77.3324 38.7803C77.4543 39.1701 77.4509 39.5895 77.3229 39.9772C77.1948 40.3649 76.9487 40.7006 76.6205 40.9353C76.2923 41.17 75.8992 41.2914 75.4987 41.2816C75.0982 41.2719 74.7112 41.1317 74.3943 40.8813L74.3911 41.3025L74.3943 41.4824C74.7277 41.671 75.1024 41.7757 75.487 41.785C75.9926 41.7973 76.4889 41.6441 76.9032 41.3478C77.3176 41.0515 77.6283 40.6277 77.79 40.1382C77.9517 39.6487 77.9559 39.1192 77.802 38.6271C77.6481 38.135 77.3442 37.706 76.9346 37.4029C76.5251 37.0998 76.0313 36.9383 75.5255 36.9422C75.0198 36.9461 74.5284 37.115 74.1233 37.4244Z" fill="#39435E"/>
<path d="M75.8032 34.9338C75.8032 34.7579 75.6641 34.6154 75.4925 34.6154C75.3209 34.6154 75.1817 34.7579 75.1817 34.9338V36.3137C75.1817 36.4895 75.3209 36.6321 75.4925 36.6321C75.6641 36.6321 75.8032 36.4895 75.8032 36.3137V34.9338Z" fill="#39435E"/>
<path d="M78.7922 36.464C78.9113 36.3374 78.9078 36.1358 78.7843 36.0137C78.6608 35.8916 78.4641 35.8952 78.3449 36.0218L77.4289 36.9948C77.3097 37.1214 77.3133 37.3229 77.4368 37.4451C77.5603 37.5672 77.757 37.5635 77.8762 37.437L78.7922 36.464Z" fill="#39435E"/>
<path d="M72.6246 36.0236C72.5029 35.8996 72.3061 35.9001 72.1851 36.0248C72.0641 36.1495 72.0647 36.3511 72.1864 36.4752L73.1349 37.4417C73.2566 37.5657 73.4533 37.5651 73.5743 37.4404C73.6953 37.3157 73.6948 37.1141 73.5731 36.9901L72.6246 36.0236Z" fill="#39435E"/>
<path d="M78.4812 39.047C78.3096 39.047 78.1704 39.1896 78.1704 39.3655C78.1704 39.5413 78.3096 39.6839 78.4812 39.6839H79.8277C79.9993 39.6839 80.1385 39.5413 80.1385 39.3655C80.1385 39.1896 79.9993 39.047 79.8277 39.047H78.4812Z" fill="#39435E"/>
<path d="M77.767 41.2878C77.6447 41.1644 77.448 41.166 77.3276 41.2913C77.2071 41.4166 77.2086 41.6182 77.3309 41.7416L78.3216 42.7414C78.4439 42.8648 78.6406 42.8632 78.761 42.7379C78.8815 42.6126 78.88 42.411 78.7577 42.2876L77.767 41.2878Z" fill="#39435E"/>
<path d="M75.8032 42.47C75.8032 42.2941 75.6641 42.1516 75.4925 42.1516C75.3209 42.1516 75.1817 42.2941 75.1817 42.47V43.8236C75.1817 43.9994 75.3209 44.142 75.4925 44.142C75.6641 44.142 75.8032 43.9994 75.8032 43.8236V42.47Z" fill="#39435E"/>
<path d="M3.43186 80.9393C4.9056 80.9393 6.01863 81.1455 6.77096 81.5577C7.52329 81.9699 7.89946 82.6965 7.89946 83.7374C7.89946 84.366 7.75002 84.8968 7.45115 85.3296C7.16259 85.7625 6.7452 86.0253 6.19899 86.118V86.1953C6.57 86.2675 6.90494 86.3963 7.20381 86.5818C7.50268 86.7673 7.73972 87.0353 7.91492 87.3857C8.09011 87.7361 8.17771 88.1998 8.17771 88.777C8.17771 89.7766 7.81701 90.5599 7.0956 91.1267C6.37419 91.6935 5.38482 91.9769 4.1275 91.9769H0V80.9393H3.43186ZM3.69466 85.3142C4.37485 85.3142 4.84376 85.206 5.10141 84.9895C5.36936 84.7731 5.50334 84.4588 5.50334 84.0466C5.50334 83.624 5.34875 83.32 5.03958 83.1345C4.7304 82.949 4.24087 82.8562 3.57099 82.8562H2.33428V85.3142H3.69466ZM2.33428 87.1692V90.0446H3.8647C4.5655 90.0446 5.05503 89.9106 5.33329 89.6427C5.61155 89.3644 5.75068 88.9985 5.75068 88.5451C5.75068 88.1328 5.6064 87.8031 5.31783 87.5557C5.03958 87.2981 4.52943 87.1692 3.78741 87.1692H2.33428Z" fill="#39435E"/>
<path d="M20.4037 86.4427C20.4037 87.5866 20.213 88.5863 19.8317 89.4417C19.4607 90.2868 18.8887 90.9463 18.1158 91.4204C17.3429 91.8945 16.3535 92.1315 15.1477 92.1315C13.9522 92.1315 12.9629 91.8945 12.1796 91.4204C11.4067 90.9463 10.8295 90.2816 10.4482 89.4262C10.0772 88.5708 9.89171 87.5712 9.89171 86.4272C9.89171 85.2833 10.0772 84.2887 10.4482 83.4437C10.8295 82.5986 11.4067 81.9442 12.1796 81.4804C12.9629 81.0063 13.9574 80.7693 15.1632 80.7693C16.3587 80.7693 17.3429 81.0063 18.1158 81.4804C18.8887 81.9442 19.4607 82.6037 19.8317 83.4591C20.213 84.3042 20.4037 85.2987 20.4037 86.4427ZM12.3497 86.4427C12.3497 87.5969 12.5712 88.509 13.0144 89.1789C13.4575 89.8385 14.1687 90.1683 15.1477 90.1683C16.1474 90.1683 16.8636 89.8385 17.2965 89.1789C17.7293 88.509 17.9458 87.5969 17.9458 86.4427C17.9458 85.2781 17.7293 84.366 17.2965 83.7065C16.8636 83.0469 16.1525 82.7171 15.1632 82.7171C14.1738 82.7171 13.4575 83.0469 13.0144 83.7065C12.5712 84.366 12.3497 85.2781 12.3497 86.4427Z" fill="#39435E"/>
<path d="M31.0296 80.9393V90.0291H32.4982V95.1924H30.2412V91.9769H23.3311V95.1924H21.0741V90.0291H21.9243C22.316 89.2562 22.6818 88.4317 23.0219 87.5557C23.362 86.6694 23.666 85.6852 23.934 84.6031C24.2123 83.521 24.4338 82.2997 24.5987 80.9393H31.0296ZM26.4538 82.8871C26.361 83.5983 26.2116 84.3712 26.0055 85.206C25.8097 86.0304 25.5726 86.8601 25.2944 87.6948C25.0161 88.5193 24.7121 89.2974 24.3823 90.0291H28.6953V82.8871H26.4538Z" fill="#39435E"/>
<path d="M40.9491 91.9769L40.1452 89.3489H36.1259L35.3221 91.9769H32.8023L36.6979 80.893H39.5578L43.4689 91.9769H40.9491ZM38.7848 84.8195C38.7333 84.6443 38.6663 84.4227 38.5839 84.1548C38.5014 83.8868 38.419 83.6137 38.3365 83.3355C38.2541 83.0572 38.1871 82.815 38.1356 82.6089C38.084 82.815 38.0119 83.0727 37.9192 83.3818C37.8367 83.6807 37.7543 83.9693 37.6718 84.2475C37.5997 84.5155 37.543 84.7061 37.5018 84.8195L36.7134 87.3857H39.5887L38.7848 84.8195Z" fill="#39435E"/>
<path d="M48.031 91.9769H45.6967V82.8871H42.6977V80.9393H51.03V82.8871H48.031V91.9769Z" fill="#39435E"/>
<path d="M59.0857 91.9769H52.7321V80.9393H59.0857V82.8562H55.0664V85.2833H58.8074V87.2002H55.0664V90.0446H59.0857V91.9769Z" fill="#39435E"/>
<path d="M61.3824 91.9769V80.9393H70.1166V91.9769H67.7823V82.8871H63.7167V91.9769H61.3824Z" fill="#39435E"/>
<path d="M81.6352 91.9769H79.301V82.8871H76.5957C76.5338 83.3612 76.4668 83.8765 76.3947 84.433C76.3329 84.9895 76.2607 85.5564 76.1783 86.1335C76.1061 86.7003 76.0288 87.2414 75.9464 87.7567C75.8639 88.2617 75.7815 88.71 75.6991 89.1016C75.5651 89.7406 75.3847 90.2868 75.158 90.7402C74.9416 91.1937 74.6376 91.5389 74.2459 91.776C73.8646 92.013 73.3648 92.1315 72.7464 92.1315C72.3445 92.1315 71.9735 92.0748 71.6334 91.9615V90.0446C71.7674 90.0858 71.8962 90.1219 72.0199 90.1528C72.1538 90.1837 72.2981 90.1992 72.4527 90.1992C72.7516 90.1992 72.9783 90.0446 73.1329 89.7354C73.2978 89.4159 73.4627 88.8233 73.6276 87.9576C73.6894 87.6279 73.777 87.1126 73.8904 86.4118C74.0037 85.711 74.1274 84.8916 74.2614 83.9538C74.4057 83.0057 74.5396 82.0008 74.6633 80.9393H81.6352V91.9769Z" fill="#39435E"/>
<path d="M94.437 86.4427C94.437 87.5866 94.2463 88.5863 93.865 89.4417C93.494 90.2868 92.922 90.9463 92.149 91.4204C91.3761 91.8945 90.3867 92.1315 89.181 92.1315C87.9855 92.1315 86.9961 91.8945 86.2129 91.4204C85.4399 90.9463 84.8628 90.2816 84.4815 89.4262C84.1105 88.5708 83.9249 87.5712 83.9249 86.4272C83.9249 85.2833 84.1105 84.2887 84.4815 83.4437C84.8628 82.5986 85.4399 81.9442 86.2129 81.4804C86.9961 81.0063 87.9906 80.7693 89.1964 80.7693C90.3919 80.7693 91.3761 81.0063 92.149 81.4804C92.922 81.9442 93.494 82.6037 93.865 83.4591C94.2463 84.3042 94.437 85.2987 94.437 86.4427ZM86.3829 86.4427C86.3829 87.5969 86.6045 88.509 87.0476 89.1789C87.4908 89.8385 88.2019 90.1683 89.181 90.1683C90.1806 90.1683 90.8969 89.8385 91.3297 89.1789C91.7626 88.509 91.979 87.5969 91.979 86.4427C91.979 85.2781 91.7626 84.366 91.3297 83.7065C90.8969 83.0469 90.1858 82.7171 89.1964 82.7171C88.207 82.7171 87.4908 83.0469 87.0476 83.7065C86.6045 84.366 86.3829 85.2781 86.3829 86.4427Z" fill="#39435E"/>
<path d="M101.407 82.7326C100.511 82.7326 99.8254 83.0675 99.3513 83.7374C98.8772 84.4073 98.6402 85.3245 98.6402 86.4891C98.6402 87.6639 98.8566 88.576 99.2894 89.2253C99.7326 89.8642 100.439 90.1837 101.407 90.1837C101.861 90.1837 102.309 90.1322 102.752 90.0291C103.206 89.9261 103.695 89.7818 104.221 89.5963V91.5595C103.736 91.7554 103.257 91.8996 102.783 91.9924C102.309 92.0851 101.778 92.1315 101.191 92.1315C100.057 92.1315 99.1194 91.8996 98.3774 91.4359C97.6457 90.9618 97.1046 90.3022 96.7542 89.4571C96.4038 88.6018 96.2286 87.6072 96.2286 86.4736C96.2286 85.3606 96.4296 84.3763 96.8315 83.521C97.2334 82.6656 97.8157 81.9957 98.5783 81.5113C99.3513 81.0269 100.294 80.7847 101.407 80.7847C101.954 80.7847 102.5 80.8569 103.046 81.0012C103.602 81.1351 104.133 81.3207 104.638 81.5577L103.881 83.4591C103.468 83.2633 103.051 83.0933 102.629 82.949C102.216 82.8047 101.809 82.7326 101.407 82.7326Z" fill="#39435E"/>
<path d="M115.61 91.9769H113.275V87.2156H108.9V91.9769H106.566V80.9393H108.9V85.2678H113.275V80.9393H115.61V91.9769Z" fill="#39435E"/>
<path d="M125.142 91.9769L124.338 89.3489H120.319L119.515 91.9769H116.995L120.891 80.893H123.751L127.662 91.9769H125.142ZM122.978 84.8195C122.927 84.6443 122.86 84.4227 122.777 84.1548C122.695 83.8868 122.612 83.6137 122.53 83.3355C122.447 83.0572 122.38 82.815 122.329 82.6089C122.277 82.815 122.205 83.0727 122.112 83.3818C122.03 83.6807 121.947 83.9693 121.865 84.2475C121.793 84.5155 121.736 84.7061 121.695 84.8195L120.907 87.3857H123.782L122.978 84.8195Z" fill="#39435E"/>
<path d="M129.06 91.9769V80.9393H136.032V82.8717H131.394V85.1751H132.322C133.363 85.1751 134.213 85.3193 134.873 85.6079C135.542 85.8965 136.037 86.2932 136.357 86.7982C136.676 87.3032 136.836 87.8803 136.836 88.5296C136.836 89.622 136.47 90.4723 135.738 91.0803C135.017 91.6781 133.863 91.9769 132.275 91.9769H129.06ZM132.183 90.06C132.894 90.06 133.45 89.9467 133.852 89.7199C134.264 89.4932 134.471 89.0964 134.471 88.5296C134.471 87.9422 134.249 87.5557 133.806 87.3702C133.363 87.1847 132.76 87.0919 131.997 87.0919H131.394V90.06H132.183Z" fill="#39435E"/>
<path d="M141.453 86.2417L137.743 80.9393H140.155L143.726 86.2881V80.9393H145.905V86.2881L149.476 80.9393H151.888L148.178 86.2417L152.104 91.9769H149.6L145.905 86.3808V91.9769H143.726V86.3808L140.031 91.9769H137.527L141.453 86.2417Z" fill="#39435E"/>
<path d="M159.855 91.9769H153.501V80.9393H159.855V82.8562H155.836V85.2833H159.577V87.2002H155.836V90.0446H159.855V91.9769Z" fill="#39435E"/>
<path d="M171.195 91.9769H168.861V87.2156H164.486V91.9769H162.152V80.9393H164.486V85.2678H168.861V80.9393H171.195V91.9769Z" fill="#39435E"/>
<path d="M173.972 80.9393H176.074V86.2726C176.074 86.5303 176.069 86.8188 176.059 87.1383C176.049 87.4578 176.038 87.7721 176.028 88.0813C176.018 88.3802 176.008 88.643 175.997 88.8697C175.987 89.0861 175.977 89.2356 175.966 89.318H176.013L181.114 80.9393H183.912V91.9769H181.825V86.6746C181.825 86.3963 181.83 86.0923 181.841 85.7625C181.851 85.4224 181.861 85.0978 181.872 84.7886C181.892 84.4794 181.908 84.2115 181.918 83.9847C181.939 83.7477 181.954 83.5931 181.964 83.521H181.902L176.786 91.9769H173.972V80.9393Z" fill="#39435E"/>
<path d="M193.052 91.9769H186.698V80.9393H193.052V82.8562H189.033V85.2833H192.774V87.2002H189.033V90.0446H193.052V91.9769Z" fill="#39435E"/>
</svg>
