<svg width="26" height="40" viewBox="0 0 26 40" fill="none" xmlns="http://www.w3.org/2000/svg">
<path d="M25.3303 9.8634V39.9743H20.7716V9.8634C20.7649 8.63486 20.2727 7.45864 19.4022 6.59052C18.5316 5.7224 17.3531 5.23255 16.1228 5.22749V0.675171C18.5637 0.67517 20.9047 1.643 22.6312 3.36595C24.3578 5.08889 25.3286 7.42594 25.3303 9.8634Z" fill="#AFB1B8"/>
<path d="M16.799 17.129V33.3579C16.799 34.6011 16.3044 35.7933 15.4241 36.6724C14.5439 37.5514 13.35 38.0453 12.105 38.0453C10.8601 38.0453 9.66623 37.5514 8.78595 36.6724C7.90567 35.7933 7.41113 34.6011 7.41113 33.3579V13.7855C7.42663 13.5121 7.38608 13.2384 7.29196 12.9811C7.19784 12.7239 7.05215 12.4886 6.86378 12.2895C6.67542 12.0905 6.44835 11.9319 6.19649 11.8235C5.94462 11.7152 5.67325 11.6593 5.399 11.6593C5.12475 11.6593 4.85339 11.7152 4.60152 11.8235C4.34966 11.9319 4.12259 12.0905 3.93423 12.2895C3.74586 12.4886 3.60016 12.7239 3.50604 12.9811C3.41192 13.2384 3.37137 13.5121 3.38686 13.7855V29.6736H0.708308V13.7855C0.701723 13.6742 0.701723 13.5625 0.708308 13.4512C0.764619 12.219 1.30567 11.0588 2.21385 10.2228C3.12204 9.38684 4.32395 8.94258 5.55833 8.98663C6.79271 9.03069 7.95979 9.55948 8.80589 10.4581C9.652 11.3567 10.1087 12.5525 10.0768 13.7855V33.3579C10.0613 33.6314 10.1019 33.9051 10.196 34.1623C10.2901 34.4195 10.4358 34.6549 10.6242 34.8539C10.8125 35.053 11.0396 35.2115 11.2915 35.3199C11.5433 35.4283 11.8147 35.4842 12.0889 35.4842C12.3632 35.4842 12.6346 35.4283 12.8864 35.3199C13.1383 35.2115 13.3654 35.053 13.5537 34.8539C13.7421 34.6549 13.8878 34.4195 13.9819 34.1623C14.076 33.9051 14.1166 33.6314 14.1011 33.3579V17.129H16.799Z" fill="#DEDEE6"/>
<path d="M0.727596 13.4512C0.72101 13.5625 0.72101 13.6742 0.727596 13.7855V13.4512Z" fill="#F4B8BC"/>
<path d="M17.0436 16.1389H13.895V17.1291H17.0436V16.1389Z" fill="#AF0020"/>
<path d="M17.5201 13.7855H13.4121V16.1453H17.5201V13.7855Z" fill="#BD0026"/>
<path d="M14.5453 13.7855V15.3737C14.5453 15.4453 14.5168 15.514 14.4661 15.5646C14.4154 15.6153 14.3466 15.6437 14.2749 15.6437H13.4121V13.7855H14.5453Z" fill="#AF0020"/>
<g style="mix-blend-mode:multiply" opacity="0.55">
<path d="M16.2387 13.7855V15.3737C16.2395 15.4088 16.2334 15.4438 16.2205 15.4766C16.2076 15.5093 16.1883 15.5391 16.1637 15.5643C16.1391 15.5894 16.1097 15.6094 16.0772 15.6231C16.0448 15.6367 16.0099 15.6437 15.9747 15.6437H14.9638C14.8921 15.6437 14.8233 15.6153 14.7726 15.5646C14.7219 15.514 14.6934 15.4453 14.6934 15.3737V13.7855H16.2387Z" fill="#DCC6B8"/>
</g>
<g style="mix-blend-mode:multiply">
<path d="M17.5201 13.7855V15.6502H16.6637C16.592 15.6502 16.5232 15.6217 16.4725 15.5711C16.4218 15.5204 16.3933 15.4517 16.3933 15.3801V13.7855H17.5201Z" fill="#DCC6B8"/>
</g>
<path d="M3.62515 29.6672H0.476562V30.6574H3.62515V29.6672Z" fill="#AF0020"/>
<path d="M4.10797 30.6575H0V33.0172H4.10797V30.6575Z" fill="#BD0026"/>
<g style="mix-blend-mode:multiply">
<path d="M2.97485 33.0108V31.4226C2.97485 31.351 3.00335 31.2823 3.05406 31.2317C3.10478 31.181 3.17356 31.1526 3.24528 31.1526H4.10808V33.0108H2.97485Z" fill="#DCC6B8"/>
</g>
<g style="mix-blend-mode:multiply" opacity="0.55">
<path d="M1.25562 33.0108V31.4226C1.25562 31.351 1.28411 31.2823 1.33482 31.2317C1.38554 31.181 1.45432 31.1526 1.52604 31.1526H2.54338C2.6151 31.1526 2.68389 31.181 2.7346 31.2317C2.78532 31.2823 2.81381 31.351 2.81381 31.4226V33.0108H1.25562Z" fill="#DCC6B8"/>
</g>
<path d="M0 33.0108V31.1526H0.856366C0.928088 31.1526 0.996872 31.181 1.04759 31.2317C1.0983 31.2823 1.1268 31.351 1.1268 31.4226V33.0108H0Z" fill="#AF0020"/>
<path d="M16.1229 0H11.3582V5.90259H16.1229V0Z" fill="#39435E"/>
<path d="M25.9999 10.082H20.1599V12.3003H25.9999V10.082Z" fill="#39435E"/>
<path d="M25.6073 12.3003H20.4949V13.5348H25.6073V12.3003Z" fill="#39435E" fill-opacity="0.6"/>
<path d="M17.4684 0.797264L17.1465 5.36245C16.8122 5.29014 16.4712 5.2535 16.1292 5.25315V0.700821C16.5773 0.700007 17.025 0.73224 17.4684 0.797264Z" fill="#39435E" fill-opacity="0.6"/>
</svg>
