<svg width="116" height="120" viewBox="0 0 116 120" fill="none" xmlns="http://www.w3.org/2000/svg">
<path opacity="0.1" d="M15.103 103.833C4.47694 93.8035 -3.28565 79.9718 1.3898 70.8055C6.06525 61.6392 23.4024 56.9738 37.0261 43.4093C50.6498 29.8448 60.8061 7.40178 75.0114 2.98304C89.2167 -1.43569 107.382 12.2727 113.019 27.9746C118.656 43.6765 111.341 61.3309 107.068 77.3C102.796 93.2691 98.7466 104.141 90.1339 112.033C81.5212 119.925 65.5263 121.323 50.9183 118.959C36.3103 116.596 25.6842 113.821 15.103 103.833Z" fill="#3B4652"/>
<path opacity="0.6" d="M84.6084 28.1172H30.6058C26.2445 28.1172 22.709 31.3653 22.709 35.3721V101.489C22.709 105.496 26.2445 108.744 30.6058 108.744H84.6084C88.9697 108.744 92.5052 105.496 92.5052 101.489V35.3721C92.5052 31.3653 88.9697 28.1172 84.6084 28.1172Z" fill="#39435E"/>
<path d="M27.7424 101.489V35.3723C27.7424 33.5844 28.5155 31.8698 29.8915 30.6055C31.2676 29.3413 33.1339 28.6311 35.08 28.6311H30.6059C28.6598 28.6311 26.7935 29.3413 25.4174 30.6055C24.0414 31.8698 23.2683 33.5844 23.2683 35.3723V101.489C23.2683 103.277 24.0414 104.991 25.4174 106.256C26.7935 107.52 28.6598 108.23 30.6059 108.23H35.08C33.1339 108.23 31.2676 107.52 29.8915 106.256C28.5155 104.991 27.7424 103.277 27.7424 101.489Z" fill="#39435E"/>
<path d="M57.5148 52.5003C52.459 52.5003 47.5169 50.9922 43.3132 48.1667C39.1095 45.3412 35.8332 41.3252 33.8984 36.6265C31.9637 31.9278 31.4575 26.7575 32.4438 21.7695C33.4301 16.7814 35.8647 12.1995 39.4396 8.60333C43.0145 5.00712 47.5693 2.55807 52.5278 1.56588C57.4864 0.573691 62.6261 1.08292 67.297 3.02917C71.9678 4.97542 75.9601 8.27129 78.7689 12.5C81.5777 16.7287 83.0769 21.7003 83.0769 26.7861C83.071 33.6041 80.376 40.1412 75.5834 44.9623C70.7908 49.7834 64.2924 52.4944 57.5148 52.5003Z" fill="white"/>
<path d="M57.5147 1.11512C62.5573 1.11512 67.4867 2.58926 71.6795 5.35111C75.8723 8.11297 79.1402 12.0385 81.0699 16.6313C82.9997 21.2241 83.5046 26.2779 82.5208 31.1536C81.537 36.0293 79.1088 40.5079 75.5431 44.023C71.9774 47.5382 67.4344 49.9321 62.4887 50.9019C57.5429 51.8717 52.4165 51.374 47.7577 49.4716C43.099 47.5692 39.117 44.3476 36.3155 40.2142C33.5139 36.0808 32.0186 31.2212 32.0186 26.25C32.0246 19.5856 34.7127 13.1959 39.4928 8.48348C44.273 3.77106 50.7545 1.12103 57.5147 1.11512ZM57.5147 0C52.2483 0 47.1002 1.53954 42.7214 4.42392C38.3426 7.30831 34.9297 11.408 32.9143 16.2046C30.899 21.0011 30.3717 26.2791 31.3991 31.3711C32.4265 36.4631 34.9625 41.1404 38.6864 44.8115C42.4103 48.4827 47.1548 50.9827 52.32 51.9956C57.4851 53.0085 62.839 52.4886 67.7044 50.5018C72.5699 48.515 76.7285 45.1505 79.6544 40.8337C82.5802 36.5169 84.1419 31.4418 84.1419 26.25C84.1359 19.2899 81.3286 12.6165 76.3363 7.69497C71.344 2.77342 64.5748 0.00590592 57.5147 0Z" fill="#39435E"/>
<path d="M46.3771 78.7586H82.5503C82.7468 78.7997 82.951 78.7997 83.1475 78.7584C83.3441 78.7172 83.528 78.6357 83.6856 78.5202C83.8432 78.4047 83.9704 78.258 84.0579 78.091C84.1453 77.9241 84.1908 77.7412 84.1908 77.556C84.1908 77.3707 84.1453 77.1878 84.0579 77.0209C83.9704 76.854 83.8432 76.7073 83.6856 76.5917C83.528 76.4762 83.3441 76.3948 83.1475 76.3535C82.951 76.3122 82.7468 76.3122 82.5503 76.3533H46.3771C46.1805 76.3122 45.9764 76.3122 45.7798 76.3535C45.5833 76.3948 45.3994 76.4762 45.2418 76.5917C45.0842 76.7073 44.9569 76.854 44.8694 77.0209C44.782 77.1878 44.7366 77.3707 44.7366 77.556C44.7366 77.7412 44.782 77.9241 44.8694 78.091C44.9569 78.258 45.0842 78.4047 45.2418 78.5202C45.3994 78.6357 45.5833 78.7172 45.7798 78.7584C45.9764 78.7997 46.1805 78.7997 46.3771 78.7586Z" fill="white"/>
<path d="M32.3061 78.7587H37.4066C37.5928 78.7812 37.7821 78.7668 37.9618 78.7166C38.1415 78.6665 38.3075 78.5816 38.4486 78.4678C38.5898 78.354 38.7029 78.2138 38.7804 78.0565C38.8578 77.8993 38.8979 77.7287 38.8979 77.5561C38.8979 77.3836 38.8578 77.213 38.7804 77.0558C38.7029 76.8985 38.5898 76.7583 38.4486 76.6445C38.3075 76.5307 38.1415 76.4458 37.9618 76.3957C37.7821 76.3455 37.5928 76.3311 37.4066 76.3535H32.3061C31.9885 76.3918 31.6968 76.5349 31.4855 76.7562C31.2742 76.9774 31.1577 77.2618 31.1577 77.5561C31.1577 77.8505 31.2742 78.1349 31.4855 78.3561C31.6968 78.5774 31.9885 78.7205 32.3061 78.7587Z" fill="white"/>
<path d="M32.3061 87.3083H54.3635C54.5497 87.3307 54.739 87.3164 54.9187 87.2662C55.0984 87.216 55.2644 87.1312 55.4055 87.0173C55.5467 86.9035 55.6598 86.7633 55.7373 86.6061C55.8148 86.4489 55.8548 86.2783 55.8548 86.1057C55.8548 85.9331 55.8148 85.7625 55.7373 85.6053C55.6598 85.4481 55.5467 85.3079 55.4055 85.1941C55.2644 85.0802 55.0984 84.9954 54.9187 84.9452C54.739 84.895 54.5497 84.8807 54.3635 84.9031H32.3061C31.9885 84.9413 31.6968 85.0844 31.4855 85.3057C31.2742 85.527 31.1577 85.8113 31.1577 86.1057C31.1577 86.4001 31.2742 86.6844 31.4855 86.9057C31.6968 87.127 31.9885 87.2701 32.3061 87.3083Z" fill="white"/>
<path d="M82.774 84.9031H62.976C62.7897 84.8807 62.6005 84.895 62.4208 84.9452C62.2411 84.9954 62.0751 85.0802 61.9339 85.1941C61.7928 85.3079 61.6797 85.4481 61.6022 85.6053C61.5247 85.7625 61.4846 85.9331 61.4846 86.1057C61.4846 86.2783 61.5247 86.4489 61.6022 86.6061C61.6797 86.7633 61.7928 86.9035 61.9339 87.0173C62.0751 87.1312 62.2411 87.216 62.4208 87.2662C62.6005 87.3164 62.7897 87.3307 62.976 87.3083H82.774C82.9602 87.3307 83.1494 87.3164 83.3291 87.2662C83.5088 87.216 83.6748 87.1312 83.816 87.0173C83.9571 86.9035 84.0702 86.7633 84.1477 86.6061C84.2252 86.4489 84.2653 86.2783 84.2653 86.1057C84.2653 85.9331 84.2252 85.7625 84.1477 85.6053C84.0702 85.4481 83.9571 85.3079 83.816 85.1941C83.6748 85.0802 83.5088 84.9954 83.3291 84.9452C83.1494 84.895 82.9602 84.8807 82.774 84.9031Z" fill="white"/>
<path d="M82.7739 94.0078H32.4625C32.2763 93.9854 32.087 93.9998 31.9073 94.05C31.7276 94.1001 31.5617 94.185 31.4205 94.2988C31.2793 94.4126 31.1662 94.5529 31.0888 94.7101C31.0113 94.8673 30.9712 95.0379 30.9712 95.2105C30.9712 95.3831 31.0113 95.5537 31.0888 95.7109C31.1662 95.8681 31.2793 96.0083 31.4205 96.1222C31.5617 96.236 31.7276 96.3209 31.9073 96.371C32.087 96.4212 32.2763 96.4356 32.4625 96.4131H82.7739C82.9602 96.4356 83.1494 96.4212 83.3291 96.371C83.5088 96.3209 83.6748 96.236 83.816 96.1222C83.9571 96.0083 84.0702 95.8681 84.1477 95.7109C84.2252 95.5537 84.2653 95.3831 84.2653 95.2105C84.2653 95.0379 84.2252 94.8673 84.1477 94.7101C84.0702 94.5529 83.9571 94.4126 83.816 94.2988C83.6748 94.185 83.5088 94.1001 83.3291 94.05C83.1494 93.9998 82.9602 93.9854 82.7739 94.0078Z" fill="white"/>
<path d="M41.8358 69.4068H41.6121L37.384 67.8037L33.156 69.4068H32.9546C32.8454 69.4383 32.7283 69.4383 32.6191 69.4068C32.5398 69.3579 32.4769 69.2897 32.4374 69.2099C32.3979 69.13 32.3833 69.0416 32.3954 68.9546L32.7309 64.8441L29.778 61.638C29.7107 61.5738 29.6644 61.4935 29.6446 61.4062C29.6248 61.3189 29.6323 61.2283 29.6662 61.1447C29.6995 61.0641 29.7535 60.9922 29.8236 60.9349C29.8937 60.8776 29.9778 60.8368 30.0688 60.8159L34.543 59.8294L36.9366 56.2327C36.9906 56.1648 37.0613 56.1095 37.1429 56.0714C37.2246 56.0333 37.3148 56.0134 37.4064 56.0134C37.498 56.0134 37.5882 56.0333 37.6699 56.0714C37.7515 56.1095 37.8222 56.1648 37.8762 56.2327L40.2698 59.7061L44.744 60.6926C44.8376 60.7078 44.9248 60.7467 44.9959 60.8047C45.067 60.8628 45.1191 60.9378 45.1466 61.0214C45.1917 61.097 45.2153 61.1818 45.2153 61.268C45.2153 61.3542 45.1917 61.4391 45.1466 61.5147L42.1713 64.7208L42.5293 68.8313C42.5346 68.9177 42.517 69.0039 42.4781 69.0827C42.4391 69.1615 42.3799 69.2303 42.3056 69.2834C42.1714 69.3773 42.0037 69.4213 41.8358 69.4068Z" fill="#FFD900"/>
<path d="M53.1552 69.4068C53.0451 69.4329 52.9297 69.4329 52.8196 69.4068C52.7491 69.3506 52.6927 69.2811 52.6541 69.2031C52.6154 69.1251 52.5956 69.0403 52.5959 68.9546L52.9538 64.8441L49.9786 61.638C49.9335 61.5624 49.9099 61.4776 49.9099 61.3914C49.9099 61.3052 49.9335 61.2203 49.9786 61.1447C50.006 61.0611 50.0582 60.9861 50.1293 60.928C50.2004 60.87 50.2876 60.8312 50.3812 60.8159L54.8553 59.8294L57.249 56.2327C57.303 56.1648 57.3737 56.1095 57.4553 56.0714C57.5369 56.0333 57.6272 56.0134 57.7188 56.0134C57.8103 56.0134 57.9006 56.0333 57.9822 56.0714C58.0639 56.1095 58.1346 56.1648 58.1886 56.2327L60.4032 59.7061L64.8774 60.6926C64.9701 60.7099 65.0561 60.7495 65.1268 60.8072C65.1976 60.865 65.2504 60.9389 65.28 61.0214C65.3139 61.105 65.3214 61.1956 65.3016 61.2829C65.2818 61.3702 65.2355 61.4505 65.1682 61.5147L62.2153 64.7208L62.5508 68.8313C62.5629 68.9183 62.5483 69.0067 62.5088 69.0865C62.4693 69.1664 62.4064 69.2346 62.3271 69.2834C62.225 69.312 62.116 69.312 62.0139 69.2834H61.7902L57.5622 67.6804L53.3341 69.2834L53.1552 69.4068Z" fill="#FFD900"/>
<path d="M82.2592 69.4068H82.0579L77.8299 67.8037L73.6018 69.4068H73.3781C73.2681 69.4329 73.1526 69.4329 73.0426 69.4068C72.9633 69.3579 72.9004 69.2897 72.8609 69.2098C72.8213 69.13 72.8068 69.0416 72.8188 68.9546L73.1768 64.8441L70.2015 61.638C70.1383 61.5715 70.0948 61.4912 70.0752 61.4048C70.0556 61.3184 70.0606 61.2288 70.0896 61.1447C70.1229 61.0641 70.1769 60.9921 70.247 60.9349C70.3171 60.8776 70.4013 60.8368 70.4923 60.8159L74.9664 59.8294L77.3601 56.2327C77.4168 56.1619 77.4909 56.1045 77.5765 56.0652C77.6621 56.0259 77.7566 56.0058 77.8522 56.0066C77.9444 56.0074 78.0351 56.0283 78.1168 56.0676C78.1985 56.1069 78.2688 56.1635 78.322 56.2327L80.6933 59.706L85.1674 60.6926C85.2584 60.7135 85.3426 60.7543 85.4127 60.8116C85.4828 60.8688 85.5368 60.9408 85.5701 61.0214C85.604 61.1049 85.6114 61.1956 85.5916 61.2829C85.5719 61.3701 85.5256 61.4505 85.4582 61.5146L82.4829 64.7208L82.8409 68.8313C82.8529 68.9183 82.8384 69.0067 82.7989 69.0865C82.7594 69.1664 82.6964 69.2346 82.6172 69.2834C82.5155 69.3591 82.3899 69.4023 82.2592 69.4068Z" fill="#FFD900"/>
<path d="M51.2818 34.2924C50.0099 34.2924 48.7932 33.8487 47.8531 33.0723L44.5349 40.171L49.7887 38.2854L51.7243 43.554L55.0977 36.3444C54.5447 36.0671 54.1023 35.7343 53.6599 35.2906C52.9962 34.6251 52.1667 34.2924 51.2818 34.2924Z" fill="#39435E" fill-opacity="0.6"/>
<path d="M66.6008 33.5159C65.7712 34.015 64.8311 34.2923 63.7803 34.2923C62.8955 34.2923 62.0659 34.6251 61.4576 35.2906C60.8493 35.9006 60.1303 36.3443 59.3008 36.6216L62.5083 43.5541L64.4439 38.2854L69.6977 40.2265L66.6008 33.5159Z" fill="#39435E" fill-opacity="0.6"/>
<ellipse cx="57.5173" cy="22.4665" rx="11.0605" ry="11.0917" fill="white"/>
<path d="M57.531 13.6062C52.6644 13.6062 48.6826 17.5993 48.6826 22.4797C48.6826 27.3601 52.6644 31.3531 57.531 31.3531C62.3977 31.3531 66.3795 27.3601 66.3795 22.4797C66.3795 17.5993 62.3977 13.6062 57.531 13.6062ZM61.4022 27.8592L57.531 25.8072L53.6599 27.8592L54.3788 23.5334L51.2265 20.4831L55.5401 19.8731L57.4757 15.9355L59.4113 19.8731L63.7249 20.4831L60.5727 23.5334L61.4022 27.8592Z" fill="#39435E" fill-opacity="0.6"/>
<path d="M63.7803 33.1833C66.2136 33.1833 68.2045 31.1868 68.2045 28.7466C68.2045 27.582 68.6469 26.4173 69.4765 25.5855C71.1909 23.8662 71.1909 21.0378 69.4765 19.3186C68.6469 18.4867 68.2045 17.3775 68.2045 16.1574C68.2045 13.7173 66.2136 11.7207 63.7803 11.7207C62.6189 11.7207 61.4576 11.2771 60.628 10.4452C58.9137 8.72596 56.0932 8.72596 54.3788 10.4452C53.5493 11.2771 52.4432 11.7207 51.2266 11.7207C48.7933 11.7207 46.8024 13.7173 46.8024 16.1574C46.8024 17.3221 46.36 18.4867 45.5304 19.3186C43.816 21.0933 43.816 23.8662 45.5304 25.6409C46.36 26.4728 46.8024 27.582 46.8024 28.8021C46.8024 31.2423 48.7933 33.2388 51.2266 33.2388C52.3879 33.2388 53.5493 33.6825 54.3788 34.5143C56.0932 36.2336 58.9137 36.2336 60.628 34.5143C61.5129 33.6825 62.6189 33.1833 63.7803 33.1833ZM57.5311 32.4624C52.0561 32.4624 47.5766 27.9702 47.5766 22.4798C47.5766 16.9893 52.0561 12.4972 57.5311 12.4972C63.0061 12.4972 67.4856 16.9893 67.4856 22.4798C67.4856 27.9702 63.0061 32.4624 57.5311 32.4624Z" fill="#39435E" fill-opacity="0.6"/>
</svg>
