<svg width="40" height="40" viewBox="0 0 40 40" fill="none" xmlns="http://www.w3.org/2000/svg">
<g clip-path="url(#clip0_3_1416)">
<path d="M19.7338 39.4668C30.6322 39.4668 39.4672 30.6319 39.4672 19.7335C39.4672 8.83504 30.6322 0.00012207 19.7338 0.00012207C8.8354 0.00012207 0.000488281 8.83504 0.000488281 19.7335C0.000488281 30.6319 8.8354 39.4668 19.7338 39.4668Z" fill="url(#paint0_linear_3_1416)"/>
<path style="mix-blend-mode:color-burn" d="M19.7338 39.4668C30.6322 39.4668 39.4672 30.6319 39.4672 19.7335C39.4672 8.83504 30.6322 0.00012207 19.7338 0.00012207C8.8354 0.00012207 0.000488281 8.83504 0.000488281 19.7335C0.000488281 30.6319 8.8354 39.4668 19.7338 39.4668Z" fill="url(#paint1_radial_3_1416)"/>
<path style="mix-blend-mode:color-burn" d="M40 20.2803C39.926 25.5598 37.7671 30.5959 33.9944 34.29C30.2216 37.9841 25.141 40.0365 19.8608 39.9995C14.5806 39.9625 9.52932 37.8391 5.80868 34.0925C2.08805 30.3459 0 25.2801 0 20C0 14.72 2.08805 9.65413 5.80868 5.90751C9.52932 2.16089 14.5806 0.0374949 19.8608 0.000491804C25.141 -0.0365113 30.2216 2.01588 33.9944 5.70998C37.7671 9.40409 39.926 14.4402 40 19.7197C40 19.9025 40 20.0975 40 20.2803Z" fill="url(#paint2_radial_3_1416)"/>
<path style="mix-blend-mode:color-dodge" d="M39.4791 19.7336C39.4731 24.3302 37.8636 28.7806 34.9281 32.3178C31.9925 35.8549 27.915 38.257 23.3982 39.1101C18.8815 39.9632 14.2087 39.2138 10.1853 36.991C6.16189 34.7682 3.04004 31.2113 1.35791 26.9336C6.2064 20.9457 15.5397 16.9094 26.1943 16.9094C30.7368 16.8823 35.2492 17.6494 39.5276 19.176C39.4791 19.3579 39.4791 19.5518 39.4791 19.7336Z" fill="url(#paint3_radial_3_1416)"/>
<path style="mix-blend-mode:color-dodge" d="M23.8426 36.2064C18.3121 36.2193 13.0028 34.0355 9.08195 30.1351C5.16108 26.2347 2.94953 20.9369 2.93347 15.4064C2.93182 13.5217 3.18877 11.6456 3.69711 9.83069C1.56005 13.4093 0.679641 17.5993 1.19567 21.7354C1.7117 25.8715 3.59458 29.7167 6.54541 32.6606C9.49623 35.6044 13.3459 37.4782 17.4832 37.9845C21.6205 38.4907 25.8084 37.6004 29.382 35.4549C27.5768 35.9488 25.7141 36.2015 23.8426 36.2064Z" fill="url(#paint4_linear_3_1416)"/>
<path style="mix-blend-mode:color-dodge" d="M33.5399 13.0545H37.5157C36.5371 10.4437 35.0154 8.07047 33.0513 6.09167C31.0871 4.11287 28.7252 2.57361 26.1218 1.57568L24.8369 4.99387C28.6609 6.47063 31.7749 9.35471 33.5399 13.0545Z" fill="url(#paint5_linear_3_1416)"/>
<path style="mix-blend-mode:color-dodge" d="M5.89115 18.0006C6.08898 14.7042 7.36693 11.5647 9.52751 9.06723L7.2366 6.54602C5.1834 8.80446 3.72139 11.5362 2.98111 14.4973C2.24083 17.4584 2.24532 20.5568 2.99418 23.5157L6.09721 21.6854C5.87364 20.4707 5.80441 19.2326 5.89115 18.0006Z" fill="url(#paint6_linear_3_1416)"/>
<path style="mix-blend-mode:color-dodge" d="M38.5216 18.5938L34.8852 17.7454C34.74 20.2808 33.9951 22.7455 32.7118 24.937C31.4285 27.1285 29.6435 28.9841 27.5034 30.3514L29.2489 33.5878C31.8524 31.9799 34.0457 29.7879 35.6552 27.1854C37.2646 24.5829 38.246 21.6414 38.5216 18.5938Z" fill="url(#paint7_linear_3_1416)"/>
<path style="mix-blend-mode:color-dodge" d="M10.7031 4.097L12.9334 7.297C14.4756 6.13738 16.2424 5.31176 18.1213 4.87276L17.2728 1.74548C14.9119 1.92701 12.643 2.73912 10.7031 4.097Z" fill="url(#paint8_linear_3_1416)"/>
<g style="mix-blend-mode:multiply" clip-path="url(#clip1_3_1416)">
<path d="M28.3764 11.7742L10.6573 18.6424C9.94428 18.9623 9.7031 19.6028 10.4849 19.9504L15.0307 21.4025L26.0216 14.5748C26.6217 14.1461 27.2361 14.2604 26.7074 14.7319L17.2677 23.3231L16.9712 26.9589C17.2458 27.5203 17.7487 27.5229 18.0695 27.2439L20.6811 24.7599L25.154 28.1266C26.1928 28.7448 26.7581 28.3459 26.9816 27.2128L29.9154 13.2491C30.22 11.8544 29.7006 11.2398 28.3764 11.7742Z" fill="#39435E"/>
</g>
</g>
<defs>
<linearGradient id="paint0_linear_3_1416" x1="19.7338" y1="4.13346" x2="19.7338" y2="38.1941" gradientUnits="userSpaceOnUse">
<stop stop-color="#D4D4D4"/>
<stop offset="1" stop-color="#737373"/>
</linearGradient>
<radialGradient id="paint1_radial_3_1416" cx="0" cy="0" r="1" gradientUnits="userSpaceOnUse" gradientTransform="translate(19.7338 19.7335) scale(19.7333)">
<stop offset="0.78" stop-color="white"/>
<stop offset="0.81" stop-color="#F9F9F9"/>
<stop offset="0.86" stop-color="#E8E8E8"/>
<stop offset="0.91" stop-color="#CDCDCD"/>
<stop offset="0.92" stop-color="#C7C7C7"/>
<stop offset="1" stop-color="white"/>
</radialGradient>
<radialGradient id="paint2_radial_3_1416" cx="0" cy="0" r="1" gradientUnits="userSpaceOnUse" gradientTransform="translate(20.1575 20.2803) scale(19.8425 19.8416)">
<stop offset="0.78" stop-color="white"/>
<stop offset="0.86" stop-color="#F9F9F9"/>
<stop offset="0.92" stop-color="#F0F0F0"/>
<stop offset="1" stop-color="white"/>
</radialGradient>
<radialGradient id="paint3_radial_3_1416" cx="0" cy="0" r="1" gradientUnits="userSpaceOnUse" gradientTransform="translate(28.6306 41.9518) scale(43.7939)">
<stop stop-color="#A8A8A8"/>
<stop offset="0.09" stop-color="#898989"/>
<stop offset="0.23" stop-color="#5F5F5F"/>
<stop offset="0.38" stop-color="#3D3D3D"/>
<stop offset="0.53" stop-color="#222222"/>
<stop offset="0.68" stop-color="#0F0F0F"/>
<stop offset="0.83" stop-color="#040404"/>
<stop offset="1"/>
</radialGradient>
<linearGradient id="paint4_linear_3_1416" x1="18.7032" y1="20.7398" x2="1.67288" y2="35.4913" gradientUnits="userSpaceOnUse">
<stop/>
<stop offset="0.13" stop-color="#070707"/>
<stop offset="0.31" stop-color="#1B1B1B"/>
<stop offset="0.54" stop-color="#3B3B3B"/>
<stop offset="0.79" stop-color="#686868"/>
<stop offset="1" stop-color="#949494"/>
</linearGradient>
<linearGradient id="paint5_linear_3_1416" x1="753.741" y1="407.351" x2="900.106" y2="248.718" gradientUnits="userSpaceOnUse">
<stop/>
<stop offset="0.13" stop-color="#070707"/>
<stop offset="0.31" stop-color="#1B1B1B"/>
<stop offset="0.54" stop-color="#3B3B3B"/>
<stop offset="0.79" stop-color="#686868"/>
<stop offset="1" stop-color="#949494"/>
</linearGradient>
<linearGradient id="paint6_linear_3_1416" x1="267.125" y1="596.074" x2="361.603" y2="619.581" gradientUnits="userSpaceOnUse">
<stop/>
<stop offset="0.13" stop-color="#070707"/>
<stop offset="0.31" stop-color="#1B1B1B"/>
<stop offset="0.54" stop-color="#3B3B3B"/>
<stop offset="0.79" stop-color="#686868"/>
<stop offset="1" stop-color="#949494"/>
</linearGradient>
<linearGradient id="paint7_linear_3_1416" x1="634.936" y1="670.77" x2="862.917" y2="750.391" gradientUnits="userSpaceOnUse">
<stop/>
<stop offset="0.13" stop-color="#070707"/>
<stop offset="0.31" stop-color="#1B1B1B"/>
<stop offset="0.54" stop-color="#3B3B3B"/>
<stop offset="0.79" stop-color="#686868"/>
<stop offset="1" stop-color="#949494"/>
</linearGradient>
<linearGradient id="paint8_linear_3_1416" x1="394.001" y1="200.712" x2="372.847" y2="132.897" gradientUnits="userSpaceOnUse">
<stop/>
<stop offset="0.13" stop-color="#070707"/>
<stop offset="0.31" stop-color="#1B1B1B"/>
<stop offset="0.54" stop-color="#3B3B3B"/>
<stop offset="0.79" stop-color="#686868"/>
<stop offset="1" stop-color="#949494"/>
</linearGradient>
<clipPath id="clip0_3_1416">
<rect width="40" height="40" fill="white"/>
</clipPath>
<clipPath id="clip1_3_1416">
<rect width="20" height="20" fill="white" transform="translate(10 10)"/>
</clipPath>
</defs>
</svg>
