<svg width="41" height="40" viewBox="0 0 41 40" fill="none" xmlns="http://www.w3.org/2000/svg">
<g clip-path="url(#clip0_3_1239)">
<path d="M38.728 6.5094H1.66699V39.9994H38.728V6.5094Z" fill="#DEDEE6"/>
<path d="M32.8697 37.2168C31.9166 37.2153 31.003 36.8361 30.3291 36.1621C29.6552 35.4882 29.2759 34.5746 29.2744 33.6216V15.6405C29.2638 14.9446 28.9798 14.2807 28.4839 13.7923C27.988 13.3039 27.3198 13.0302 26.6238 13.0302C25.9278 13.0302 25.2596 13.3039 24.7637 13.7923C24.2678 14.2807 23.9838 14.9446 23.9732 15.6405V33.6228C23.9608 34.5682 23.5765 35.4707 22.9035 36.1349C22.2306 36.799 21.3231 37.1714 20.3776 37.1714C19.4322 37.1714 18.5247 36.799 17.8518 36.1349C17.1788 35.4707 16.7945 34.5682 16.7821 33.6228V15.6405C16.7821 14.9376 16.5029 14.2635 16.0059 13.7665C15.5088 13.2694 14.8347 12.9902 14.1318 12.9902C13.4289 12.9902 12.7548 13.2694 12.2577 13.7665C11.7607 14.2635 11.4815 14.9376 11.4815 15.6405V33.6228C11.4815 34.5765 11.1026 35.4911 10.4283 36.1655C9.75393 36.8398 8.83931 37.2187 7.88564 37.2187C6.93196 37.2187 6.01735 36.8398 5.34299 36.1655C4.66864 35.4911 4.28979 34.5765 4.28979 33.6228V12.5147H5.23594V33.6228C5.23594 34.3257 5.51517 34.9998 6.0122 35.4969C6.50923 35.9939 7.18335 36.2731 7.88626 36.2731C8.58917 36.2731 9.26328 35.9939 9.76031 35.4969C10.2573 34.9998 10.5366 34.3257 10.5366 33.6228V15.6405C10.5303 15.1644 10.6187 14.6917 10.7966 14.25C10.9745 13.8083 11.2383 13.4063 11.5728 13.0674C11.9073 12.7285 12.3058 12.4594 12.7451 12.2757C13.1845 12.092 13.6559 11.9974 14.1321 11.9974C14.6083 11.9974 15.0797 12.092 15.5191 12.2757C15.9584 12.4594 16.3569 12.7285 16.6914 13.0674C17.0259 13.4063 17.2897 13.8083 17.4676 14.25C17.6455 14.6917 17.7339 15.1644 17.7276 15.6405V33.6228C17.7276 34.3257 18.0069 34.9998 18.5039 35.4969C19.0009 35.9939 19.675 36.2731 20.378 36.2731C21.0809 36.2731 21.755 35.9939 22.252 35.4969C22.749 34.9998 23.0283 34.3257 23.0283 33.6228V15.6405C23.022 15.1644 23.1104 14.6917 23.2883 14.25C23.4662 13.8083 23.73 13.4063 24.0645 13.0674C24.399 12.7285 24.7975 12.4594 25.2368 12.2757C25.6762 12.092 26.1476 11.9974 26.6238 11.9974C27.1 11.9974 27.5714 12.092 28.0108 12.2757C28.4501 12.4594 28.8486 12.7285 29.1831 13.0674C29.5176 13.4063 29.7814 13.8083 29.9593 14.25C30.1372 14.6917 30.2256 15.1644 30.2193 15.6405V33.6228C30.2193 34.3257 30.4986 34.9998 30.9956 35.4969C31.4926 35.9939 32.1667 36.2731 32.8697 36.2731C33.5726 36.2731 34.2467 35.9939 34.7437 35.4969C35.2407 34.9998 35.52 34.3257 35.52 33.6228V12.5147H36.4655V33.6228C36.4637 34.5758 36.0842 35.4892 35.4102 36.1628C34.7362 36.8365 33.8226 37.2155 32.8697 37.2168Z" fill="#BD0026"/>
<path d="M40.352 20.7531H20.7512V29.9773H40.352V20.7531Z" fill="#FEFEFE"/>
<path d="M40.352 0.00183105H0V20.7537H40.352V0.00183105Z" fill="#FEFEFE"/>
<path d="M9.22427 0.00183105H0V9.22611H9.22427V0.00183105Z" fill="#AFB1B8"/>
<path d="M19.6013 0V6.31942L15.8608 9.22365H10.3777V0H19.6013Z" fill="#818387"/>
<path d="M27.7528 0L20.7493 5.43163V0H27.7528Z" fill="#AFB1B8"/>
<path d="M29.9779 1.36023V4.75616L24.2203 9.22365H20.7493V8.52025L29.9779 1.36023Z" fill="#AFB1B8"/>
<path d="M36.113 0L31.1252 3.86838V0H36.113Z" fill="#818387"/>
<path d="M40.3538 2.24805V9.22367H31.3611L40.3538 2.24805Z" fill="#818387"/>
<path d="M9.22488 10.3766V14.3722L2.48578 19.6002H0.0012207V10.3766H9.22488Z" fill="#818387"/>
<path d="M6.46655 19.6002L9.22489 17.4608V19.6002H6.46655Z" fill="#818387"/>
<path d="M14.3727 10.3766L10.3777 13.4795V10.3766H14.3727Z" fill="#AFB1B8"/>
<path d="M19.6013 10.3766V12.809L10.8452 19.6002H10.3777V16.5631L18.3541 10.3766H19.6013Z" fill="#AFB1B8"/>
<path d="M17.9812 19.6002L19.6016 18.3436V19.6002H17.9812Z" fill="#AFB1B8"/>
<path d="M22.7328 10.3766L20.7493 11.9162V10.3766H22.7328Z" fill="#818387"/>
<path d="M29.9779 10.3766V19.6002H20.7493V17.4559L29.8736 10.3766H29.9779Z" fill="#818387"/>
<path d="M40.352 10.3772H31.1277V19.6015H40.352V10.3772Z" fill="#AFB1B8"/>
<path d="M29.9755 20.7531H20.7512V29.9773H29.9755V20.7531Z" fill="#AFB1B8"/>
<path d="M40.352 20.7531H31.1277V29.9773H40.352V20.7531Z" fill="#818387"/>
<path d="M9.22494 14.3722V17.4608L6.46659 19.6002H2.48584L9.22494 14.3722Z" fill="#39435E"/>
<path d="M18.3541 10.3766L10.3777 16.5631V13.4795L14.3727 10.3766H18.3541Z" fill="#39435E"/>
<path d="M19.6013 6.31934V9.22357H15.8608L19.6013 6.31934Z" fill="#39435E"/>
<path d="M29.9779 0V1.36024L20.7493 8.52025V5.43163L27.7529 0H29.9779Z" fill="#39435E"/>
<path d="M40.3539 0V2.24802L31.3612 9.22365H31.1252V3.86838L36.113 0H40.3539Z" fill="#39435E"/>
<path d="M29.978 4.75623V9.22371H24.2205L29.978 4.75623Z" fill="#39435E"/>
<path d="M29.8736 10.3766L20.7493 17.4559V11.9162L22.7328 10.3766H29.8736Z" fill="#39435E"/>
<path d="M19.6014 12.8088V18.3435L17.981 19.6001H10.8452L19.6014 12.8088Z" fill="#39435E"/>
<path d="M23.5415 1.91705L22.3955 3.06262L23.5411 4.20859L24.687 3.06302L23.5415 1.91705Z" fill="white"/>
<path d="M5.85485 13.7184L5.2002 14.3728L5.85462 15.0275L6.50928 14.373L5.85485 13.7184Z" fill="white"/>
</g>
<defs>
<clipPath id="clip0_3_1239">
<rect width="40.3539" height="40" fill="white"/>
</clipPath>
</defs>
</svg>
