<svg width="40" height="31" viewBox="0 0 40 31" fill="none" xmlns="http://www.w3.org/2000/svg">
<g clip-path="url(#clip0_3_1220)">
<path d="M31.4654 2.40047C31.4625 2.87606 31.3189 3.34015 31.0526 3.73418C30.7864 4.12821 30.4095 4.43454 29.9695 4.61452C29.5294 4.79451 29.046 4.84009 28.5801 4.74552C28.1142 4.65095 27.6867 4.42046 27.3516 4.08313C27.0165 3.7458 26.7887 3.31673 26.697 2.85005C26.6054 2.38337 26.6539 1.89998 26.8365 1.46085C27.0191 1.02172 27.3275 0.646523 27.723 0.382585C28.1185 0.118648 28.5832 -0.0222078 29.0586 -0.0222168C29.3759 -0.0222228 29.6901 0.0405468 29.9831 0.162478C30.276 0.28441 30.542 0.463096 30.7657 0.688258C30.9894 0.91342 31.1664 1.18061 31.2865 1.47446C31.4065 1.76831 31.4673 2.08301 31.4654 2.40047Z" fill="#39435E"/>
<path d="M13.7911 2.40048C13.7881 2.87639 13.6443 3.34077 13.3778 3.73495C13.1112 4.12914 12.7339 4.43546 12.2934 4.61522C11.853 4.79499 11.3691 4.84014 10.903 4.74497C10.4369 4.6498 10.0095 4.41857 9.67467 4.0805C9.33985 3.74243 9.11267 3.31268 9.02183 2.84551C8.93099 2.37835 8.98057 1.89473 9.16429 1.45573C9.34801 1.01674 9.65763 0.642054 10.0541 0.379007C10.4505 0.115959 10.916 -0.0236565 11.3917 -0.0222056C11.7086 -0.0222191 12.0225 0.0405983 12.315 0.162619C12.6076 0.28464 12.8731 0.463447 13.0962 0.688709C13.3193 0.91397 13.4956 1.18122 13.6148 1.47503C13.7341 1.76884 13.794 2.08338 13.7911 2.40048Z" fill="#39435E"/>
<path d="M21.9563 2.40065C21.9578 2.78809 21.8443 3.16724 21.6302 3.4901C21.4161 3.81295 21.1111 4.06498 20.7537 4.21426C20.3963 4.36354 20.0027 4.40336 19.6227 4.32867C19.2427 4.25398 18.8935 4.06815 18.6191 3.79471C18.3448 3.52126 18.1577 3.17251 18.0816 2.79262C18.0055 2.41273 18.0438 2.0188 18.1917 1.66071C18.3395 1.30262 18.5903 0.996483 18.9122 0.781078C19.2341 0.565673 19.6126 0.450686 19.9999 0.450684C20.5175 0.45068 21.014 0.655886 21.3807 1.02136C21.7474 1.38684 21.9544 1.88281 21.9563 2.40065Z" fill="#BD0026"/>
<path d="M14.2341 9.57983V27.7278C14.2341 28.1193 16.8181 29.8403 20.0001 29.8403C23.1821 29.8403 25.7734 28.1193 25.7734 27.7278V9.57983H14.2341Z" fill="#818387"/>
<path d="M27.4419 9.56519H12.6394V12.372H27.4419V9.56519Z" fill="#C5C8CF"/>
<path d="M21.9564 5.88672H18.1248V9.56506H21.9564V5.88672Z" fill="#818387"/>
<path d="M31.5467 2.40063H8.54185C7.94269 2.40063 7.36806 2.63876 6.94439 3.06263C6.52072 3.4865 6.28271 4.06138 6.28271 4.66082C6.28271 5.26026 6.52072 5.83515 6.94439 6.25901C7.36806 6.68288 7.94269 6.92101 8.54185 6.92101H31.5688C32.168 6.92101 32.7426 6.68288 33.1663 6.25901C33.5899 5.83515 33.8279 5.26026 33.8279 4.66082C33.8279 4.06138 33.5899 3.4865 33.1663 3.06263C32.7426 2.63876 32.168 2.40063 31.5688 2.40063H31.5467Z" fill="#39435E"/>
<path d="M39.9999 14.6985H14.2266V20.2825H39.9999V14.6985Z" fill="#C5C8CF"/>
<path d="M39.9999 20.2825H14.2266V25.8665H39.9999V20.2825Z" fill="#AFB1B8"/>
<path d="M25.7733 14.6985H0V20.2825H25.7733V14.6985Z" fill="#C5C8CF"/>
<path d="M25.7733 20.2825H0V25.8665H25.7733V20.2825Z" fill="#AFB1B8"/>
<path d="M39.9999 9.57983C34.0937 9.57983 32.1003 14.3735 32.1003 20.2973H39.9999V9.57983Z" fill="#AFB1B8"/>
<path d="M32.1003 20.2825C32.1003 26.1915 34.0863 30.9999 39.9999 30.9999V20.2825H32.1003Z" fill="#818387"/>
<path d="M0 9.57983C5.90624 9.57983 7.90699 14.3735 7.90699 20.2973H0V9.57983Z" fill="#AFB1B8"/>
<path d="M7.90699 20.2825C7.90699 26.1915 5.921 30.9999 0 30.9999V20.2825H7.90699Z" fill="#818387"/>
<path d="M8.542 2.40063C8.01023 2.40134 7.49585 2.59031 7.09 2.93407C6.68414 3.27784 6.41299 3.75421 6.32457 4.27882C6.23614 4.80343 6.33615 5.34243 6.60688 5.80034C6.8776 6.25826 7.30158 6.60553 7.80372 6.78067C14.3449 6.30795 19.786 4.64605 22.525 2.40063H8.542Z" fill="#C5C8CF" fill-opacity="0.6"/>
</g>
<defs>
<clipPath id="clip0_3_1220">
<rect width="40" height="31" fill="white"/>
</clipPath>
</defs>
</svg>
